<svg id="Layer_1" data-name="Layer 1" xmlns="http://www.w3.org/2000/svg" viewBox="0 0 120 110.17"><defs><style>.cls-1{fill:#c1cce8;}.cls-2{fill:#6082c1;}.cls-3{fill:#253d93;}</style></defs><title>Nautilus logo</title><polygon class="cls-1" points="32.68 28.81 32.7 28.27 32.11 28.63 32.2 28.89 32.68 28.81"/><path class="cls-1" d="M106.76,22h1c1.73,0,4.11.07,5.63,0h0.2a0.28,0.28,0,0,0,.16,0c0.68,0,1.44,0,2.18,0,0.89,0,1.81,0,2.58,0a8.59,8.59,0,0,0,1.47-.1l0-.28c-2.65,0-5.06,0-7.61,0h-0.54c-0.77,0-1.65,0-2.31,0h-4c0-.37,0-0.79,0-1.19,0-.1,0-0.17,0-0.23h1.93c1.78,0,4.22.08,5.77,0h0.21a0.31,0.31,0,0,0,.16,0c0.71,0,1.49,0,2.24,0,0.91,0,1.86,0,2.65,0A9,9,0,0,0,120,20l0-.28c-2.78,0-5.33,0-7.8,0h-6.64a2.48,2.48,0,0,0,0-.4h0.05c0-.17,0-0.33,0-0.49a3.18,3.18,0,0,1,0-.49,3.29,3.29,0,0,0,0-.6v0h0c0-.22,0-0.38,0-0.53a0.24,0.24,0,0,0,0-.11h0a0.4,0.4,0,0,0,0-.07h0a0.27,0.27,0,0,0,0-.15l0-.51s0-.1,0-0.16l-0.28,0v0.09a1,1,0,0,1,0,.17h0v0h-0.05v0.25c0,0.18,0,.34,0,0.5s0,0.42,0,.67h0V18c0,0.12,0,.23,0,0.33h0v0.21h0v0a4.55,4.55,0,0,1,0,.54c0,0.07,0,.13,0,0.17h0a0.57,0.57,0,0,0,0,.25v0a0.33,0.33,0,0,0,0,.11h-0.5c-1.95,0-4,0-6,0v0H98.22v0H93.41c-1,0-1,0-1.9,0-2.27,0-4.52,0-6.7,0H80.49l-5.7,0-5.51,0c-0.31,0-.68,0-1.07,0l-1,0h0c-0.4,0-.59,0-0.91,0l-0.57,0H65.65a0.43,0.43,0,0,0-.16,0H65.21a3.64,3.64,0,0,0-.46,0,0.14,0.14,0,0,0-.09,0H64.32a2.57,2.57,0,0,0-.69-0.05H62.1c-1.18,0-2.39,0-3.54,0h0v0a2.08,2.08,0,0,0-.46,0H57.9v0H53.46a8.66,8.66,0,0,1-1,0H49.66c-1.25,0-2.54,0-3.79,0H44.45c-0.67,0-1.36,0-2,0a0.52,0.52,0,0,0-.17,0h0v0H42.07c-0.37,0-.81,0-1.28,0h-1c-0.43,0-.93,0-1.42,0s-0.89,0-1.28,0v0H36.36v0H36.13c-0.62,0-.94,0-1.68,0H33.63a6.6,6.6,0,0,0-.71,0H32.36l0,0.11,0-.09a5.19,5.19,0,0,1-.65,0v0H29.77c-0.92,0-1.88,0-2.7,0l-0.14,0h-2c-0.85,0-1.72,0-2.56,0l-1.44,0H20.52l-0.69,0a3.33,3.33,0,0,1-.4,0H18.87c-0.45,0-.89,0-1.27,0l0,0H17.52c-0.58,0-1.33,0-1.94,0H15.3a1.85,1.85,0,0,0-.33,0H14.92v0c-1.22,0-2.28,0-3.41,0H11.08c-0.22,0-.58,0-1,0H10c0-.33,0-0.65,0-1s0-.88,0-1.22V17.26c0-.24,0-0.39,0-0.6a2.1,2.1,0,0,1,0-.34c0-.17,0-0.33,0-0.5,0-.37,0-0.71,0-1l0,0V14.72c0-.68,0-1.22,0-1.63,0,0,0-.13,0-0.22a1.62,1.62,0,0,0,0-.29v0h0c0-1,0-2,0-2.94V9.32c0-.18,0-0.48,0-0.83s0-.59,0-0.88c0-.12,0-0.27,0-0.42l0.75,0H10.8l0.06,0V7.26H11.4a0.44,0.44,0,0,0,.16,0,0.18,0.18,0,0,0,.16-0.09h1.35a0.41,0.41,0,0,0,.15,0,0.38,0.38,0,0,0,.23,0h0.23v0h1.18v0a2.92,2.92,0,0,1,.46,0v0h0.1v0l0.27,0h0.08a1.31,1.31,0,0,0,.29,0h0.26v0h0.44l0,0h0.33a0.36,0.36,0,0,0,.12,0v0a2.27,2.27,0,0,0,.42,0H18v0a1.09,1.09,0,0,1,.32,0,2.08,2.08,0,0,0,.5,0l0-.11,0,0.08,0.21,0a0.76,0.76,0,0,0,.33-0.06h0.13V7.25l0.41,0,0.39,0a0.53,0.53,0,0,0,.19,0,1.4,1.4,0,0,0,.34,0v0h0.43V7.31H21.4a0.87,0.87,0,0,0,.22,0l0.13,0,0.15,0H22v0H22.2a0.81,0.81,0,0,0,.35,0l0.08,0H22.7v0h0.6a2.42,2.42,0,0,1,.47,0v0h0.54l0.2,0h0.15l0.07,0a1.47,1.47,0,0,0,.35,0h0.19a0.49,0.49,0,0,0,.22,0v0l0.17,0h0v0l0.14,0h0a2.14,2.14,0,0,1,.32,0,1.44,1.44,0,0,0,.35,0v0h0.14a0.46,0.46,0,0,0,.17,0,0.82,0.82,0,0,0,.32,0h0.09v0h0.15a1.55,1.55,0,0,0,.46,0,1.15,1.15,0,0,1,.25,0,0.26,0.26,0,0,0,.18.07h0.09l0.11,0h0.71l0,0h0l0.27,0-0.1,0h0.68c1.08,0,2.43,0,3.36-.06,0.15,0,.4,0,0.78,0h0.3v0h0.11l0.27,0a9,9,0,0,0,.92,0h0.19a1.29,1.29,0,0,0,.35,0h0l0.22,0,0,0H37l-0.07.06,0.46,0h0.11c0.34,0,1,0,1.48,0v0H39v0c0.44,0,1,0,1.54,0h1.14c0.32,0,.68,0,1,0h0.74V7.16l0,0.06a2,2,0,0,1,.37,0,0.49,0.49,0,0,1,.18,0,0.63,0.63,0,0,0,.28.05h0.57a6.64,6.64,0,0,1,.68,0l0.6,0h0.92v0a0.62,0.62,0,0,0,.34,0h0a0.41,0.41,0,0,0,.17,0h0.22a1,1,0,0,1,.22,0H48.6v0h0v0h0.47v0h0.24l0.22,0h0l0.48,0a0.71,0.71,0,0,0,.39.05H51a5,5,0,0,0,.7,0l0.35,0a0.82,0.82,0,0,0,.31,0h0.09l0,0h0.08v0c0.29,0,.77,0,1.28,0H55l0.51,0-0.06,0h0a1.22,1.22,0,0,0,.3,0h0.37v0l0.47,0h0.27v0a5.68,5.68,0,0,0,.67,0,4.34,4.34,0,0,1,.59,0h0l0,0,0,0h0.13l0.36,0,0.34,0,0-.1v0.1h0.3v0c0.34,0,.62,0,0.92,0h0c0.13,0,.39,0,0.7,0h0.59a3.16,3.16,0,0,1,.39,0,1.44,1.44,0,0,0,.32,0h0.06l0.18,0H62.7a0.94,0.94,0,0,0,.44,0h1.24v0h1.14v0a3.23,3.23,0,0,0,.6,0c0.59,0,1.51,0,2,0h1.06l0.05,0,0.06,0h1.48a0.19,0.19,0,0,0,.15,0h0l1.22,0v0c0.33,0,.76,0,0.94,0v0h0.81a3.36,3.36,0,0,0,.75,0h0.26l0.13,0h0.12a0.47,0.47,0,0,0,.17,0l0.72-.06h0v0c0.41,0,.7,0,1,0l0.28,0H78.1l0.09,0v0c0.29,0,1,0,1.42,0h0.05v0h0.22a2.16,2.16,0,0,0,.4,0h0.26a0.31,0.31,0,0,0,.17,0h2.12l1,0h0a1,1,0,0,0,.35,0h0.2v0h1.91v0a3.08,3.08,0,0,0,.4,0h0.54v0h0.85l0.32,0h0.89c1.46,0,3,0,4.41,0a0.21,0.21,0,0,0,.11,0l0.26,0,0,0h1.68a1.7,1.7,0,0,0,.37,0l0.22,0a2,2,0,0,1,.34,0h1a3.33,3.33,0,0,1,.46,0h0c0.47,0,.71,0,0.83,0v0h1.37c1,0,2,0,2.86,0v0c0.34,0,.69,0,1,0a10.69,10.69,0,0,0,1.19,0l0.19,0,0.16,0,0.17,0h1.78c1.4,0,4,.08,5.63,0h0.2a0.28,0.28,0,0,0,.16,0c0.68,0,1.44,0,2.17,0,0.89,0,1.82,0,2.59,0A8.32,8.32,0,0,0,120,7l0-.28c-2.73,0-5.21,0-7.61,0h-0.43c-0.81,0-1.73,0-2.42,0l-4.56,0c-1.88,0-3.82,0-5.76,0v0H99l-0.21,0v0H94c-0.9,0-1,0-1.82,0-2.18,0-4.34,0-6.43,0H81.47l-6,0-4.92,0c-0.29,0-.64,0-1,0l-1,0h0c-0.38,0-.57,0-0.87,0l-0.57,0H67a0.42,0.42,0,0,0-.15,0H66.58l-0.42,0-0.07-.05,0,0.06H65.71A2.38,2.38,0,0,0,65,6.69H63.6c-1.16,0-2.36,0-3.49,0h0v0a2,2,0,0,0-.45,0H59.46v0H55.13a8.4,8.4,0,0,1-.94,0H51.55c-1.26,0-2.57,0-3.83,0h-1.4c-0.64,0-1.31,0-2,0a0.5,0.5,0,0,0-.17,0h0v0H44c-0.35,0-.77,0-1.22,0h-1c-0.41,0-.91,0-1.38,0s-0.87,0-1.25,0v0H38.45v0H38.22c-0.6,0-.91,0-1.63,0h-0.8a6.23,6.23,0,0,0-.71,0H34.55l0,0.11,0-.1a4.86,4.86,0,0,1-.63,0v0h-1.8c-0.91,0-1.86,0-2.67,0l-0.14,0H27.32c-0.83,0-1.68,0-2.5,0l-1.41,0H23.07l-0.74,0L22,6.76h-0.6c-0.44,0-.85,0-1.22,0l0,0H20.08c-0.58,0-1.31,0-1.9,0H17.91a1.76,1.76,0,0,0-.31,0h0v0c-1.25,0-2.3,0-3.51,0H13.81c-0.21,0-.56,0-1,0h-1c-0.4,0-1.08,0-1.44,0H9.94c0-.15,0-0.29,0-0.4V6c0-.45,0-1,0-1.53a3.3,3.3,0,0,0,0-.41l0.76,0H10.8l0.06,0V4.16H11.4a0.44,0.44,0,0,0,.16,0,0.18,0.18,0,0,0,.16-0.09h1.35a0.4,0.4,0,0,0,.15,0,0.38,0.38,0,0,0,.23,0h0.23v0h1.18v0a3.05,3.05,0,0,1,.46,0v0h0.1v0l0.27,0h0.08a1.36,1.36,0,0,0,.29,0h0.27v0h0.44l0,0h0.33a0.35,0.35,0,0,0,.12,0v0a2.1,2.1,0,0,0,.42,0H18v0a1.07,1.07,0,0,1,.32,0,2.07,2.07,0,0,0,.5,0l0-.11,0,0.08,0.22,0a0.77,0.77,0,0,0,.32-0.06h0.13V4.16l0.41,0,0.39,0a0.53,0.53,0,0,0,.19,0,1.42,1.42,0,0,0,.34,0v0h0.43V4.21h0.37l0.13,0,0.15,0H22v0H22.2a0.84,0.84,0,0,0,.35,0l0.08,0H22.7v0h0.39l0,0h0.16a2.29,2.29,0,0,1,.49,0v0h0.54l0.21,0h0.14l0.07,0a1.45,1.45,0,0,0,.36,0h0.18a0.48,0.48,0,0,0,.23,0v0l0.17,0h0v0l0.14,0h0.34a1.4,1.4,0,0,0,.35,0v0h0.15a0.46,0.46,0,0,0,.17,0,0.84,0.84,0,0,0,.32,0h0.09v0h0.15a1.78,1.78,0,0,0,.46,0,1.17,1.17,0,0,1,.25,0,0.26,0.26,0,0,0,.18.06h0.09l0.11,0h0.05c0.05,0,.31,0,0.43,0h0.19l0.07,0h0l0.39,0,0.11,0v0h0v0a0.56,0.56,0,0,0,.18,0h0.15v0c1.16,0,2.47,0,3.36-.06,0.13,0,.34,0,0.66,0h0.42v0h0.11l0.27,0c0.3,0,.69,0,1,0h0.13a1.21,1.21,0,0,0,.35,0h0l0.22,0,0,0H37l-0.06,0,0.42,0h0.16c0.33,0,1,0,1.48,0v0H39v0c0.44,0,1,0,1.56,0h1.11c0.32,0,.68,0,1,0h0.75V4.06l0,0.05a2.08,2.08,0,0,1,.37,0,0.51,0.51,0,0,1,.18,0,0.62,0.62,0,0,0,.28.05h0.57a6.17,6.17,0,0,1,.68,0l0.6,0h0.92v0a0.62,0.62,0,0,0,.34,0h0a0.39,0.39,0,0,0,.17,0h1v0h0v0h0.47v0h0.24l0.21,0h0l0.46,0h0a0.73,0.73,0,0,0,.39.05H51a4.88,4.88,0,0,0,.7,0l0.35,0a0.88,0.88,0,0,0,.33,0h0.19v0c0.29,0,.78,0,1.29,0H55l0.5,0-0.06,0h0a1.3,1.3,0,0,0,.3,0h0.37v0l0.47,0h0.27v0a5.4,5.4,0,0,0,.67,0,4.42,4.42,0,0,1,.59,0h0l0,0,0,0h0.13l0.34,0,0.36,0,0-.1v0.1h0.3v0c0.32,0,.59,0,0.86,0h0.1c0.12,0,.38,0,0.68,0h0.62a3.16,3.16,0,0,1,.4,0,1.44,1.44,0,0,0,.31,0h0.06l0.16,0,0.15,0a1,1,0,0,0,.44,0h1.24v0h1.14v0a2.86,2.86,0,0,0,.6,0c0.58,0,1.5,0,2,0h1.07l0.06,0,0,0c0.26,0,.56,0,0.86,0h0.61a0.2,0.2,0,0,0,.16,0H71.1l1.08,0h0c0.21,0,.73,0,0.93,0v0h0.81a3.32,3.32,0,0,0,.74,0h0.26l0.14,0h0.12l0.17,0L76.07,4h0v0c0.41,0,.7,0,1,0l0.28,0H78.1l0.09,0h0v0c0.25,0,.79,0,1.23,0h0.24v0h0.22a2.14,2.14,0,0,0,.4,0h0.26a0.31,0.31,0,0,0,.18,0h2.15l1,0h0a1,1,0,0,0,.35,0h0.2V4h1.92V4a3.06,3.06,0,0,0,.4,0,2.29,2.29,0,0,1,.34,0h0.21V4h0.83l0.25,0h1c1.44,0,2.92,0,4.34,0a0.21,0.21,0,0,0,.11,0l0.25,0,0,0h1.68a1.69,1.69,0,0,0,.38,0l0.22,0a2,2,0,0,1,.34,0h0.35c0.23,0,.45,0,0.66,0a3.2,3.2,0,0,1,.45,0h0.06c0.46,0,.69,0,0.8,0V4h1.48c0.95,0,1.92,0,2.75,0h0c0.34,0,.69,0,1,0a10.75,10.75,0,0,0,1.19,0l0.18,0,0.16,0L106,4h1.78c1.4,0,4,.08,5.63,0h0.2a0.3,0.3,0,0,0,.16,0c0.69,0,1.46,0,2.2,0s1.8,0,2.56,0a8.61,8.61,0,0,0,1.47-.1l0-.28c-2.71,0-5.2,0-7.61,0h-0.46c-0.8,0-1.7,0-2.38,0l-4.53,0c-1.89,0-3.84,0-5.79,0v0H98.76v0H94.07c-0.94,0-1,0-1.85,0-2.2,0-4.38,0-6.49,0H81.47l-5.56,0-5.37,0c-0.3,0-.66,0-1,0l-0.94,0h0c-0.39,0-.59,0-0.9,0l-0.54,0H67a0.43,0.43,0,0,0-.16,0H66.58a3.22,3.22,0,0,0-.42,0l-0.07,0,0,0.06H65.71A2.42,2.42,0,0,0,65,3.59H63.56c-1.15,0-2.34,0-3.46,0h0v0a1.94,1.94,0,0,0-.44,0H59.46v0H55.13a8,8,0,0,1-.94,0H51.5c-1.24,0-2.53,0-3.78,0H46.35c-0.66,0-1.33,0-2,0a0.5,0.5,0,0,0-.17,0h0v0H44c-0.36,0-.79,0-1.25,0h-1c-0.41,0-.9,0-1.37,0s-0.88,0-1.25,0v0H38.45v0H38.23c-0.59,0-.91,0-1.64,0h-0.8a7,7,0,0,0-.7,0H34.55l0,0.11,0-.1a4.92,4.92,0,0,1-.63,0v0H32c-0.9,0-1.83,0-2.63,0l-0.14,0H27.33c-0.83,0-1.69,0-2.51,0l-1.41,0H23l-0.68,0a2.89,2.89,0,0,1-.39,0H21.4c-0.44,0-.87,0-1.24,0l0,0H20.08c-0.52,0-1.29,0-1.9,0l-0.27,0a1.84,1.84,0,0,0-.32,0h0v0c-1.17,0-2.19,0-3.27,0H13.8c-0.21,0-.57,0-1,0h-1c-0.4,0-1.08,0-1.44,0H9.93a2.55,2.55,0,0,0,0-.32H9.94c0-.18,0-0.36,0-0.53a3.8,3.8,0,0,1,0-.52,3.37,3.37,0,0,0,0-.64v0h0c0-.25,0-0.41,0-0.56A0.24,0.24,0,0,0,9.9,1V0.89h0a0.28,0.28,0,0,0,0-.16l0-.54c0-.05,0-0.11,0-0.18L9.59,0v0.1a1.21,1.21,0,0,1,0,.18h0v0h0l0,0V0.61c0,0.19,0,.36,0,0.52s0,0.46,0,.73h0V2c0,0.13,0,.26,0,0.38l0,0v0.2h0v0a5.24,5.24,0,0,1,0,.6c0,0.07,0,.13,0,0.17h0a0.62,0.62,0,0,0,0,.26,0.32,0.32,0,0,1,0,0H8.22a4.22,4.22,0,0,0-.5,0H7.49l0,0H7.41a3.84,3.84,0,0,0-.52,0V3.68H6.3a4.94,4.94,0,0,1-.62,0,4.52,4.52,0,0,0-.74,0h0v0H4.25l-0.11,0h0L4,3.76a0.26,0.26,0,0,0-.18-0.05l-0.61,0H3l-2.86,0H0V4.06H5.15V4H5.74v0H6v0H6c0.12,0,.5,0,0.69,0H6.92a0.72,0.72,0,0,0,.29,0H7.3a0.57,0.57,0,0,0,.23,0H8.05c0.45,0,1,0,1.34,0H9.52V4.34c0,0.39,0,.84,0,1.17s0,0.79,0,1.12c0,0,0,.06,0,0.08a0.15,0.15,0,0,0,0,.06H8.22a4.17,4.17,0,0,0-.5,0L7.5,6.8l0,0H7.41a3.89,3.89,0,0,0-.52,0V6.78H6.28a5.06,5.06,0,0,1-.6,0,4.44,4.44,0,0,0-.74,0h0v0H4.26a0.37,0.37,0,0,0-.14,0h0L4,6.86H4a0.29,0.29,0,0,0-.17,0l-0.62,0H3L3,7.13H3.36v0h0v0H5.15v0H5.73v0H6v0H6c0.12,0,.5,0,0.7,0H6.92a0.71,0.71,0,0,0,.29,0H7.3a0.55,0.55,0,0,0,.23,0H8c0.44,0,1,0,1.38,0H9.46s0,0,0,0a0.4,0.4,0,0,0,0,.15,0.18,0.18,0,0,0,.09.16c0,0.37,0,.76,0,1.14a0.29,0.29,0,0,0,0,.08L9.43,8.62v0.6c0,0.14,0,.25,0,0.37s0,0.3,0,.57v0.1h0a2,2,0,0,1,0,.38h0v0.08h0L9.4,11a1.24,1.24,0,0,0,0,.33,0.9,0.9,0,0,1,0,.22h0v0.4h0c0,0.06,0,.14,0,0.23v0a0.35,0.35,0,0,0,0,.1h0a1.65,1.65,0,0,0,0,.37s0,0.06,0,.11,0,0.09,0,.14h0a0.77,0.77,0,0,1,0,.27,1.56,1.56,0,0,0,0,.44l0.11,0-0.08,0a1.65,1.65,0,0,1,0,.18,0.67,0.67,0,0,0,.06.29v0.1H9.47c0,0.1,0,.24,0,0.37s0,0.24,0,.32a0.49,0.49,0,0,0,0,.17,1.22,1.22,0,0,0,0,.29h0s0,0.11,0,.17,0,0.14,0,.2H9.41v0a0.25,0.25,0,0,1,0,.07,0.77,0.77,0,0,0,0,.2l0,0.08a1.22,1.22,0,0,0,0,.15s0,0.06,0,.08h0a1.06,1.06,0,0,1,0,.16,0.64,0.64,0,0,0,0,.33l0,0.08v0h0v0s0,0.15,0,.2,0,0.06,0,.08l0,0v0.16a1.75,1.75,0,0,1,0,.41h0c0,0.07,0,.15,0,0.26s0,0.16,0,.21,0,0.13,0,.19v0.12l0,0.06a1.17,1.17,0,0,0,0,.31s0,0.1,0,.14a0.43,0.43,0,0,0,0,.2h0a1.31,1.31,0,0,1,0,.14v0h0l0,0.14v0s0,0,0,.06H9.05c-0.41,0-1.11,0-1.47,0L7,19.79H5.36a4.82,4.82,0,0,0-.51,0H4.61l0,0H4.53a4.09,4.09,0,0,0-.53,0V19.78H3.38a5.18,5.18,0,0,1-.63,0,4.42,4.42,0,0,0-.76,0H2v0H1.17L1,19.87H1a0.3,0.3,0,0,0-.16,0l-0.62,0H0l0,0.28H0.37v0h0v0h1.8v0h0.6v0H3v0h0c0.13,0,.51,0,0.71,0H4a0.73,0.73,0,0,0,.29,0h0.1a0.58,0.58,0,0,0,.23,0H5.15c0.47,0,1,0,1.4,0l1.33,0H8l0.06,0v0.07H8.62a0.45,0.45,0,0,0,.16,0,0.19,0.19,0,0,0,.17-0.09H9.43a0.56,0.56,0,0,0,0,.1h0v0.11a0.41,0.41,0,0,0,0,.16,0.69,0.69,0,0,0,0,.28v0h0V21a1.42,1.42,0,0,0,0,.41,0.81,0.81,0,0,1,0,.19H8.22a4.74,4.74,0,0,0-.49,0l-0.23,0,0,0H7.41a4,4,0,0,0-.52,0V21.64H6.28a5,5,0,0,1-.6,0,4.39,4.39,0,0,0-.74,0h0v0H4.25l-0.12,0h0L4,21.72H4a0.29,0.29,0,0,0-.17,0l-0.62,0H3L3,22H3.36v0h0v0H5.15v0H5.73v0H6v0H6a7,7,0,0,1,.7,0h0.2a0.72,0.72,0,0,0,.29,0H7.3a0.56,0.56,0,0,0,.23,0H8c0.44,0,1,0,1.38,0H9.44c0,0.06,0,.24,0,0.33s0,0.17,0,.19l0,0.06h0c0,0.08,0,.15,0,0.26l0-.08V23.1h0a0.66,0.66,0,0,0,0,.11v0.18c0,0.93,0,2.11.06,2.89,0,0.12,0,.31,0,0.6v0.33H8.22a4.83,4.83,0,0,0-.5,0H7.49l0,0H7.41a3.91,3.91,0,0,0-.52,0V27.22H6.29a5.2,5.2,0,0,1-.61,0,4.28,4.28,0,0,0-.74,0h0v0H4.14L4,27.3H4a0.3,0.3,0,0,0-.16,0l-0.62,0H3l0,0.28H3.36v0h0v0H5.15v0H5.74v0H6v0H6c0.12,0,.51,0,0.7,0h0.2a0.74,0.74,0,0,0,.29,0H7.3a0.56,0.56,0,0,0,.23,0H8c0.46,0,1,0,1.37,0H9.46c0,0.24,0,.52,0,0.73v0l0,0.08a1,1,0,0,0,0,.31v0l0,0.2,0,0c0,0.06,0,.12,0,0.18l0,0,0,0.38a0.83,0.83,0,0,0,0,.15c0,0.29,0,.85,0,1.26h0v0h0c0,0.38,0,.84,0,1.33,0,0.27,0,.55,0,0.82a0.41,0.41,0,0,0,0,.16c0,0.28,0,.59,0,0.89s0,0.44,0,.64h0v0h0a0.6,0.6,0,0,1,0,.09v0.38a0.46,0.46,0,0,0,0,.17l-0.05-.09L9.49,36.1a4.78,4.78,0,0,1,0,.58l0,0.52v0a2.58,2.58,0,0,1,0,.26c0,0.13,0,.22,0,0.28v0.13h0V38h0a0.53,0.53,0,0,0,0,.3h0a0.36,0.36,0,0,0,0,.15v0.12a0.37,0.37,0,0,0,0,.08,0.7,0.7,0,0,1,0,.18V39c0,0.1,0,.26,0,0.3h0v0h0c0,0.07,0,.14,0,0.21s0,0.14,0,.19h0v0.85a0.77,0.77,0,0,0,0,.32v0.5a3.88,3.88,0,0,0,0,.6v0.32a1.3,1.3,0,0,0,0,.31v0.05a0.35,0.35,0,0,1,0,.07h0a10.48,10.48,0,0,0,0,1.12c0,0.31,0,.63,0,0.9l0,0.47,0,0a1.41,1.41,0,0,0,0,.24c0,0.09,0,.19,0,0.27l-0.31.08,0,0.43H9.52v0.17h0a4.25,4.25,0,0,0,0,.59,3.26,3.26,0,0,1,0,.5v0l0,0,0,0V48c0,0.13,0,.24,0,0.27h0v0h0v0.13s0,0.08,0,.12h0c0,0.28,0,.5,0,0.74V49.4a5.77,5.77,0,0,0,0,.6c0,0.17,0,.35,0,0.53a2.31,2.31,0,0,1,0,.33,1.29,1.29,0,0,0,0,.27h0v0l0,0.14v0.15a1.09,1.09,0,0,0,0,.36c0,0.08,0,.16,0,0.18v0h0s0,0,0,.06a0.86,0.86,0,0,0,0,.19v0.17s0,0.08,0,.11V52.9h0s0,0,0,.05v0.51s0,0.11,0,.22v0s0,0,0,.05,0,0.07,0,.1h0a2.42,2.42,0,0,0,0,.53c0,0.51,0,1.29,0,1.69a0.25,0.25,0,0,0,0,.09c0,0.06,0,.12,0,0.18v0.19h0v0.22s0,0.11,0,.21l0,0,0,0.09c0,0.23,0,.48,0,0.75v0.53a0.2,0.2,0,0,0,0,.13v0.15c0,0.13,0,.25,0,0.38v0H9.44l-0.13.13a0.44,0.44,0,0,0-.11.18v0a0.69,0.69,0,0,0,0,.15h0v0.14H9.23L9.34,60H9.52v4.2h0v1.76l-0.27-.17,0,2.25,0.23-.33V86.36c-0.4,0-1,0-1.31,0H6.09a4.34,4.34,0,0,0-.48,0H5.38l0,0H5.3a3.54,3.54,0,0,0-.51,0V86.36H4.2a4.88,4.88,0,0,1-.6,0,4.4,4.4,0,0,0-.72,0h0v0H2.22a0.3,0.3,0,0,0-.13,0h0L2,86.44H2a0.29,0.29,0,0,0-.16,0l-0.59,0H1l0,0.28H1.34v0h0v0h0v0H3.09v0H3.66v0H3.9v0h0c0.12,0,.52,0,0.69,0H4.82a0.72,0.72,0,0,0,.28,0H5.19a0.54,0.54,0,0,0,.23,0H5.83c0.45,0,1,0,1.41,0l1.27,0h0.1l0.06,0v0.08H9.2a0.44,0.44,0,0,0,.16,0,0.18,0.18,0,0,0,.16-0.09H9.61c0,0.17,0,.34,0,0.51a8.17,8.17,0,0,0,0,1l0,0.15a0.83,0.83,0,0,1,0,.14,0.8,0.8,0,0,0,0,.16c0,0.06,0,.18,0,0.31s0,0.18,0,.24v0.11c0,0.15,0,.32,0,0.48s0,0.27,0,.39h0c0,0.55,0,1.18,0,1.82H8.09a4.36,4.36,0,0,0-.48,0H7.38l0,0H7.3a3.8,3.8,0,0,0-.5,0V92.11H6.2a4.7,4.7,0,0,1-.59,0,3.86,3.86,0,0,0-.72,0h0v0H4.21a0.17,0.17,0,0,0-.11,0h0L4,92.18H4a0.29,0.29,0,0,0-.16,0l-0.58,0H3l0,0.28H3.35v0h0v0H5.1v0H5.67l0,0H5.9v0h0a6.59,6.59,0,0,1,.67,0H6.82a0.71,0.71,0,0,0,.28,0H7.18a0.55,0.55,0,0,0,.22,0h0.5c0.44,0,.94,0,1.32,0H9.59c0,1,0,1.9,0,2.62,0,0.1,0,.14,0,0.16a0.25,0.25,0,0,0,0,.15c0,0.59,0,1.24,0,1.88s0,1.56,0,2.23a6.36,6.36,0,0,0,.1,1.27l0.27,0c0-2.35,0-4.49,0-6.56V94c0-.47,0-1,0-1.45l0.46,0h0.1l0.06,0v0.07h0.52a0.44,0.44,0,0,0,.16,0,0.18,0.18,0,0,0,.16-0.09h1.32l0.09,0-0.17.07h1.83v0a2.69,2.69,0,0,1,.45,0v0h0.09v0l0.26,0h0.06a1.36,1.36,0,0,0,.3,0H16v0h0.43l0,0h0.32l0.12,0v0a2.07,2.07,0,0,0,.41,0h0.29v0a1,1,0,0,1,.31,0,2,2,0,0,0,.49,0l0-.11,0,0.08,0.21,0a0.72,0.72,0,0,0,.31-0.06h0.12v0.08l0.4,0,0.38,0a0.52,0.52,0,0,0,.18,0,1.39,1.39,0,0,0,.33,0v0h0.42v0h0.14a0.83,0.83,0,0,0,.22,0l0.1,0,0.17,0h0.09v0h0.2a0.79,0.79,0,0,0,.35,0l0.1,0h0v0h0.38l0,0h0.17a2.22,2.22,0,0,1,.47,0v0h0.87l0.07,0a1.41,1.41,0,0,0,.35,0h0.17a0.48,0.48,0,0,0,.22,0v0l0.16,0h0v0l0.14,0h0a2.38,2.38,0,0,1,.31,0,1.41,1.41,0,0,0,.34,0v0h0.14a0.45,0.45,0,0,0,.17,0,0.8,0.8,0,0,0,.31,0h0.09v0h0.15a1.61,1.61,0,0,0,.45,0,1.08,1.08,0,0,1,.24,0,0.26,0.26,0,0,0,.18.07h0.09l0.11,0h0.74l0.3,0-0.1,0h0.63c1.05,0,2.38,0,3.27-.06,0.13,0,.36,0,0.69,0h0.36v0h0.11l0.26,0c0.27,0,.61,0,0.88,0h0.19a1.25,1.25,0,0,0,.34,0h0l0.22,0,0,0h0.21l-0.06,0,0.42,0,0.16,0c0.32,0,1,0,1.44,0v0H38.1v0c0.43,0,.95,0,1.5,0h1.11c0.31,0,.66,0,1,0h0.73V92.48l0,0.06a1.87,1.87,0,0,1,.36,0,0.49,0.49,0,0,1,.17,0,0.61,0.61,0,0,0,.28.05h0.55a6.31,6.31,0,0,1,.66,0l0.59,0H46v0a0.6,0.6,0,0,0,.33,0h0a0.4,0.4,0,0,0,.16,0h0.21a0.85,0.85,0,0,1,.21,0h0.52v0h0v0H48v0h0.23l0.21,0h0l0.44,0h0a0.71,0.71,0,0,0,.39.05h0.57a5.08,5.08,0,0,0,.68,0l0.34,0a0.8,0.8,0,0,0,.3,0h0.2c0.28,0,.76,0,1.27,0h1l0.51,0-0.06,0a1.37,1.37,0,0,0,.28,0h0.36v0l0.46,0h0.25v0a5.75,5.75,0,0,0,.66,0,4.13,4.13,0,0,1,.57,0h0.07l0,0h0.13l0.38,0,0.3,0,0-.1v0.1h0.29v0c0.35,0,.63,0,0.94,0,0.13,0,.39,0,0.7,0h0.56a3,3,0,0,1,.38,0,1.55,1.55,0,0,0,.3,0h0.07l0.16,0,0.15,0a0.89,0.89,0,0,0,.43,0h1.21v0h1.11v0a3.14,3.14,0,0,0,.59,0c0.58,0,1.47,0,1.93,0h1l0.05,0,0.06,0H69a0.2,0.2,0,0,0,.16,0h0.11l1.12,0h0c0.32,0,.74,0,0.91,0v0h0.78a3.26,3.26,0,0,0,.74,0h0.23l0.15,0h0.11l0.17,0,0.7-.06h0v0c0.4,0,.67,0,0.92,0l0.29,0h0.73l0.09,0h0v0c0.23,0,.72,0,1.12,0h0.31v0H78a2.1,2.1,0,0,0,.39,0H78.6a0.3,0.3,0,0,0,.17,0h2.06l1,0h0a0.93,0.93,0,0,0,.34,0h0.19v0h1.87v0a2.87,2.87,0,0,0,.4,0h0.52v0H86l0.24,0h1c1.4,0,2.83,0,4.22,0a0.22,0.22,0,0,0,.11,0l0.25,0,0,0h1.65a1.69,1.69,0,0,0,.36,0l0.21,0a1.92,1.92,0,0,1,.33,0h1a3,3,0,0,1,.45,0h0.12c0.41,0,.62,0,0.72,0v0H98c1,0,1.93,0,2.76,0v0c0.33,0,.67,0,1,0a10.48,10.48,0,0,0,1.16,0l0.18,0,0.16,0,0.17,0h1.77a1.32,1.32,0,0,1,0,.21,6.83,6.83,0,0,0,0,.69h0c0,0.38,0,.77,0,1.16,0,0.77,0,1.57,0,2.24h0c0,0.27,0,.55,0,0.82a7.1,7.1,0,0,0,0,1l0,0.14a0.75,0.75,0,0,1,0,.13,0.76,0.76,0,0,0,0,.16c0,0.06,0,.18,0,0.31s0,0.12,0,.17v0.13c0,0.15,0,.3,0,0.46s0,0.25,0,.36h0c0,1.39-.08,3.31,0,4.53,0,0.08,0,.12,0,0.14a0.25,0.25,0,0,0,0,.15c0,0.12,0,.26,0,0.39h-0.76l-4.44,0c-1.82,0-3.71,0-5.59,0v0H94v0H89.41c-0.91,0-1,0-1.79,0-2.12,0-4.24,0-6.28,0H77.18l-5.69,0-4.93,0c-0.28,0-.62,0-1,0l-0.94,0h0c-0.38,0-.56,0-0.87,0l-0.53,0H63.12a0.39,0.39,0,0,0-.15,0H62.71l-0.41,0-0.08,0,0,0.06H61.87a2.3,2.3,0,0,0-.66-0.05H59.66c-1.07,0-2.19,0-3.23,0h0v0a1.81,1.81,0,0,0-.44,0H55.79v0H51.59a7.86,7.86,0,0,1-.92,0H48.28c-1.28,0-2.61,0-3.89,0H43c-0.63,0-1.28,0-1.92,0a0.48,0.48,0,0,0-.16,0h0v0H40.8c-0.34,0-.75,0-1.18,0h-1c-0.39,0-.86,0-1.32,0s-0.87,0-1.24,0v0H35.39v0H35.16c-0.58,0-.88,0-1.58,0H32.8a6,6,0,0,0-.69,0H31.6l0,0.11,0-.1a4.86,4.86,0,0,1-.61,0v0H29.14c-0.87,0-1.78,0-2.56,0l-0.14,0H24.57c-0.8,0-1.63,0-2.43,0l-1.37,0H20.43l-0.7,0-0.34,0h-0.6c-0.42,0-.81,0-1.17,0l0,0H17.54c-0.63,0-1.29,0-1.84,0H15.46a1.82,1.82,0,0,0-.33,0h0v0c-1.28,0-2.35,0-3.6,0h0c-0.21,0-.54,0-0.94,0h-1c-0.39,0-1,0-1.39,0H6a4.08,4.08,0,0,0-.49,0l-0.21,0,0,0H5.24a3.54,3.54,0,0,0-.5,0v-0.05H4.13a4.76,4.76,0,0,1-.58,0,4.33,4.33,0,0,0-.72,0h0v0H2.17a0.33,0.33,0,0,0-.14,0H2l-0.1,0h0a0.29,0.29,0,0,0-.16,0l-0.6,0H0.95L1,106H1.3v0h0v0h0v0H3v0H3.6v0H3.84v0h0a6.54,6.54,0,0,1,.68,0h0.2A0.69,0.69,0,0,0,5,106H5.12a0.53,0.53,0,0,0,.22,0H5.86c0.44,0,.93,0,1.3,0l1.26,0h0.1l0.06,0v0.07H9.11a0.43,0.43,0,0,0,.16,0,0.18,0.18,0,0,0,.16-0.09h1.31a0.38,0.38,0,0,0,.15,0,0.37,0.37,0,0,0,.22,0h0.22v0h1.15v0a2.64,2.64,0,0,1,.44,0v0H13v0l0.26,0h0.09a1.17,1.17,0,0,0,.27,0,1.05,1.05,0,0,1,.25,0v0h0.43l0,0h0.32a0.34,0.34,0,0,0,.12,0v0a2.16,2.16,0,0,0,.41,0h0.28v0a1,1,0,0,1,.31,0,2,2,0,0,0,.49,0V106l0,0.08,0.2,0a0.75,0.75,0,0,0,.32-0.06H17v0.08l0.46,0,0.32,0a0.52,0.52,0,0,0,.18,0,1.33,1.33,0,0,0,.33,0v0h0.42v0.05H19l0.09,0,0.17,0H19.4v0h0.2a0.77,0.77,0,0,0,.35,0l0.08,0h0.06v0h0.59a2.36,2.36,0,0,1,.45,0v0h0.53l0.27,0H22l0.07,0a1.41,1.41,0,0,0,.34,0h0.18a0.48,0.48,0,0,0,.22,0v0h0l0.16,0h0v0l0.14,0h0.33a1.38,1.38,0,0,0,.35,0v0H24a0.44,0.44,0,0,0,.17,0,0.77,0.77,0,0,0,.31,0h0.08v0h0.15a1.43,1.43,0,0,0,.45,0,1.12,1.12,0,0,1,.24,0,0.26,0.26,0,0,0,.18.07h0.09l0.11,0h0.66l0.07,0h0l0.27,0-0.1,0h0.66c1.05,0,2.38,0,3.26-.06,0.14,0,.37,0,0.72,0h0.33v0h0.11l0.26,0c0.28,0,.63,0,0.91,0h0.16a1.18,1.18,0,0,0,.34,0h0l0.22,0,0,0h0.23l-0.06.05,0.41,0,0.16,0c0.33,0,1,0,1.43,0v0h0.05v0c0.42,0,.94,0,1.49,0h1.11c0.31,0,.66,0,1,0h0.72V106l0,0.06a2,2,0,0,1,.36,0h0.17a0.57,0.57,0,0,0,.27.05l-0.07,0,0.64,0a6.2,6.2,0,0,1,.66,0l0.59,0h0.89v0a0.61,0.61,0,0,0,.33,0h0a0.39,0.39,0,0,0,.16,0h0.21a0.87,0.87,0,0,1,.21,0h0.52v0h0v0h0.45v0H46l0.21,0h0l0.46,0a0.69,0.69,0,0,0,.39.05h0.57a4.72,4.72,0,0,0,.68,0l0.34,0a0.86,0.86,0,0,0,.31,0H49l0,0h0.08v0a12,12,0,0,0,1.27,0h1l0.5,0-0.06,0h0a1.2,1.2,0,0,0,.3,0h0.36v0h0.71v0a5.35,5.35,0,0,0,.65,0,4.05,4.05,0,0,1,.57,0h0.07l0,0h0.13l0.4,0,0.28,0,0-.1v0.11H55.7v0c0.31,0,.57,0,0.84,0h0.09c0.12,0,.37,0,0.67,0h0.59a3.05,3.05,0,0,1,.38,0,1.33,1.33,0,0,0,.3,0h0.06l0.17,0h0.13a0.89,0.89,0,0,0,.43,0h1.2v0h1.11v0a3.15,3.15,0,0,0,.59,0c0.56,0,1.46,0,1.92,0h1l0.05,0,0.06,0h1.43a0.18,0.18,0,0,0,.15,0h0.16l1.08,0h0c0.26,0,.72,0,0.91,0v0h0.78a3.24,3.24,0,0,0,.73,0H70.8l0.14,0h0.29l0.7-.06h0v0c0.4,0,.68,0,0.93,0l0.27,0H73.9L74,106h0v0c0.24,0,.78,0,1.2,0h0.23v0h0.23a2,2,0,0,0,.39,0h0.25a0.31,0.31,0,0,0,.17,0h2.08l1,0h0a1,1,0,0,0,.34,0H80v0h1.86v0a3.06,3.06,0,0,0,.39,0,2.33,2.33,0,0,1,.33,0h0.2v0h0.83L84,106h0.82c1.41,0,2.85,0,4.25,0a0.21,0.21,0,0,0,.11,0l0.25,0,0,0h1.63a1.59,1.59,0,0,0,.37,0l0.21,0a1.77,1.77,0,0,1,.33,0h1a3.25,3.25,0,0,1,.43,0h0.05c0.45,0,.67,0,0.78,0v0h1.43c0.92,0,1.88,0,2.68,0h0c0.33,0,.67,0,1,0a10.76,10.76,0,0,0,1.15,0l0.18,0,0.16,0,0.17,0h1.73l2.46,0c0,0.31,0,.62,0,0.92,0,0.71,0,1.45,0,2.07a5.59,5.59,0,0,0,.1,1.19l0.27,0c0-1.44,0-2.76,0-4.14,0.92,0,1.86,0,2.59,0h0.19a0.27,0.27,0,0,0,.16,0c0.66,0,1.39,0,2.1,0,0.87,0,1.77,0,2.53,0a8.11,8.11,0,0,0,1.43-.1l0-.28c-2.62,0-4.93,0-7.39,0h-1.57c0-.49,0-1,0-1.52v-0.39c0-.63,0-1.35,0-1.89,0-1.22,0-2.43,0-3.66,0-1.51,0-3.08,0-4.63h0s0-.08,0-0.14v0l0-.17h0c0-.23,0-0.45,0-0.67,1.62,0,3.63.06,5,0h0.19a0.29,0.29,0,0,0,.16,0c0.67,0,1.42,0,2.14,0s1.76,0,2.51,0a8.1,8.1,0,0,0,1.43-.1l0-.28c-2.51,0-4.75,0-7.42,0h-0.38c-0.8,0-1.71,0-2.39,0h-1.18c0-.07,0-0.15,0-0.22,0-.63,0-1.24,0-1.88v0a2.59,2.59,0,0,1,0-.26c0-.13,0-0.22,0-0.27h0a13.89,13.89,0,0,1,0-1.49c0-.38,0-0.75,0-1.13,1.19,0,2.41,0,3.31,0h0.19a0.3,0.3,0,0,0,.16,0c0.67,0,1.41,0,2.12,0,0.87,0,1.78,0,2.54,0a8.14,8.14,0,0,0,1.44-.1l0-.28c-2.54,0-4.78,0-7.44,0h-2.28c0-1.19,0-2.38,0-3.53s0-2.35,0-3.54c0-.22,0-0.43,0-0.65l0,0,0.27-.41-0.29-.18c0-1.1,0-2.19,0-3.29q0-1.37,0-2.78a0.65,0.65,0,0,0,0-.27h0V71.4h0c0-.33,0-0.66,0-1V66c0-.08,0-0.16,0-0.25V64.2l0.07,0-0.07-.12V59.24h0V58.83l0-.09V58.29s0,0,0-.08,0-.13,0-0.2,0-.12,0-0.17V57.08h0V56.54c0-.42,0-0.86,0-1.3s0-1.17,0-1.75V50.84c0-.49,0-1,0-1.49,0,0,0,0,0,0V49.23h0V49.09c0-.07,0-0.15,0-0.23V48.13c0-.22,0-0.44,0-0.67,0,0,0,0,0-.08h0V27.51h0l0.17,0,0.17,0h1.78c1.72,0,4.1.07,5.63,0h0.2a0.3,0.3,0,0,0,.16,0c0.69,0,1.46,0,2.2,0s1.8,0,2.56,0a8.56,8.56,0,0,0,1.47-.1l0-.28c-2.74,0-5.21,0-7.61,0h-0.25c-0.83,0-1.86,0-2.59,0h-4c0-.66,0-1.28,0-1.92V24.82c0-.17,0-0.45,0-0.78s0-.55,0-0.82,0-.3,0-0.47,0-.49,0-0.66V21.95l0.14,0,0.17,0L106,22h0.76Zm-4.27,70c-1.87,0-3.8,0-5.72,0v0H96.35v0H91.77c-0.91,0-1,0-1.8,0-2.1,0-4.16,0-6.22,0H79.49L74.1,92l-5.26,0c-0.29,0-.64,0-1,0l-0.92,0h0c-0.38,0-.56,0-0.87,0L65.5,92H65.39a0.43,0.43,0,0,0-.15,0H65a2.85,2.85,0,0,0-.4,0L64.5,92l-0.05.06H64.13A2.35,2.35,0,0,0,63.47,92H61.26L61.31,92,61.17,92H58.62v0a1.83,1.83,0,0,0-.43,0H58v0H53.81a8,8,0,0,1-.93,0H50.34c-1.24,0-2.51,0-3.75,0H45.24c-0.63,0-1.29,0-1.94,0a0.47,0.47,0,0,0-.17,0h0v0H43c-0.35,0-.77,0-1.22,0h-1c-0.4,0-.88,0-1.34,0s-0.85,0-1.22,0v0H37.56v0H35a6.23,6.23,0,0,0-.68,0H33.75l0,0.11,0-.1a5,5,0,0,1-.61,0v0H31.3c-0.88,0-1.79,0-2.57,0l-0.14,0h-1.9c-0.8,0-1.63,0-2.42,0l-1.37,0H22.5l-0.65,0a2.57,2.57,0,0,1-.34,0H20.93c-0.43,0-.83,0-1.2,0l0,0H19.65c-0.77,0-1.38,0-1.85,0H17.54a1.75,1.75,0,0,0-.32,0h0v0c-1.29,0-2.37,0-3.62,0h0c-0.2,0-.54,0-0.92,0h-1c-0.39,0-1,0-1.4,0H10c0-.11,0-0.23,0-0.33,0-1.29,0-2.58,0-3.88,0-.25,0-0.5,0-0.75a2,2,0,0,0,.69-0.06l0.11,0-0.06-.26h0a0.42,0.42,0,0,0,.14,0,0.38,0.38,0,0,0,.23,0h0.22v0H11.9l0,0.15,0.37,0.18h0.13a1.23,1.23,0,0,0,.34,0h0.15l0.84,0.08-0.18-.34,0.25,0H14v0h0.43l0,0h0.32l0.12,0v0a2.13,2.13,0,0,0,.41,0h0.29v0a1,1,0,0,1,.32,0,1.79,1.79,0,0,0,.33,0l0.08,0.33h0.86l0-.35,0.28,0,0.37,0a0.53,0.53,0,0,0,.19,0,1.34,1.34,0,0,0,.32,0l0,0.24,0.24,0.07h0.07a0.52,0.52,0,0,0,.55-0.3l0.1,0,0.14,0h0.09v0h0.2a0.8,0.8,0,0,0,.35,0l0.08,0h0.06v0h0.58a2.34,2.34,0,0,1,.46,0v0h0.87l0.07,0a1.41,1.41,0,0,0,.35,0h0.18a0.47,0.47,0,0,0,.22,0v0h0l0.16,0h0v0l0.14,0h0.33a1.44,1.44,0,0,0,.35,0v0h0.14a0.46,0.46,0,0,0,.17,0,0.81,0.81,0,0,0,.31,0h0.09v0h0.15a2,2,0,0,0,.46,0l0.13,0h0.13a0.28,0.28,0,0,0,.17.06h0.09l0.11,0h0.75l0.37,0,0.11,0v0h0v0a0.52,0.52,0,0,0,.18,0h0.15c1.06,0,2.39,0,3.28-.06,0.13,0,.35,0,0.69,0h0.37v0H32l0.26,0c0.29,0,.67,0,0.94,0h0.05l0.08,0a1.23,1.23,0,0,0,.34,0h0l0.22,0,0,0h0.24l-0.06.05,0.41,0,0.15,0c0.32,0,1,0,1.44,0v0h0.05v0c0.43,0,1,0,1.51,0h1.1c0.31,0,.67,0,1,0h0.73v0h0.57a0.61,0.61,0,0,0,.23,0l-0.08,0,0.67,0c0.17,0,.45,0,0.66,0l0.59,0h0.9v0a0.61,0.61,0,0,0,.33,0h0a0.42,0.42,0,0,0,.17,0h0.95v0h0v0H46v0.06H52.9L53,87.13h0.46V86.86H68.15l0.1,0.27h0.52V87.07l0.31-.13,0-.09h6.76L75.68,87h1l1.43,0-0.22-.15h27.34V89a0.19,0.19,0,0,0,0,.1l0,0.22,0.05,0v0.08c0,0.11,0,.26,0,0.41v0h0c0,0.09,0,.15,0,0.22s0,0.17,0,.28v0.14s0,0.1,0,.15a1.17,1.17,0,0,0,0,.31l0,0.16v0a1.26,1.26,0,0,1,0,.27,2.45,2.45,0,0,0,0,.28h0c0,0.09,0,.18,0,0.27h-2.66Zm-92-71.75a0.39,0.39,0,0,0,.23,0H11v0h1.22v0a3,3,0,0,1,.47,0v0h0.1v0l0.27,0h0.08a1.41,1.41,0,0,0,.3,0h0.27v0h0.45l0,0H14.5a0.36,0.36,0,0,0,.12,0v0a2.35,2.35,0,0,0,.43,0h0.3v0a1.18,1.18,0,0,1,.33,0,2.16,2.16,0,0,0,.51,0V20.19l0,0.08,0.22,0a0.78,0.78,0,0,0,.33-0.06h0.14v0.08l0.43,0,0.39,0a0.54,0.54,0,0,0,.19,0,1.48,1.48,0,0,0,.35,0v0h0.44v0.05H19.1l0.14,0,0.15,0h0.1v0h0.21a0.84,0.84,0,0,0,.36,0l0.09,0H20.2v0h0.6a2.53,2.53,0,0,1,.5,0v0h0.56l0.2,0h0.16l0.07,0a1.53,1.53,0,0,0,.37,0h0.19a0.5,0.5,0,0,0,.23,0v0l0.17,0h0v0l0.14,0h0.35a1.5,1.5,0,0,0,.36,0v0H24.3a0.47,0.47,0,0,0,.17,0,0.86,0.86,0,0,0,.33,0h0.1v0H25a1.69,1.69,0,0,0,.47,0,1.24,1.24,0,0,1,.26,0,0.26,0.26,0,0,0,.18.07h0.1l0.11,0h0.05c0.05,0,.31,0,0.43,0h0.21l0.07,0h0l0.41,0,0.11,0v0h0v0a0.55,0.55,0,0,0,.18,0h0.15v0c1.19,0,2.53,0,3.45-.06,0.13,0,.35,0,0.68,0h0.42v0H32.5l0.27,0c0.31,0,.71,0,1,0h0.13a1.38,1.38,0,0,0,.36,0h0l0.23,0,0.05,0h0.23l-0.06,0,0.44,0,0.17,0c0.34,0,1,0,1.51,0v0h0.06v0c0.45,0,1,0,1.59,0h1.15c0.33,0,.7,0,1.06,0h0.76v0a2.17,2.17,0,0,1,.38,0,0.49,0.49,0,0,1,.19,0,0.63,0.63,0,0,0,.28.05l-0.07,0,0.66,0c0.19,0,.47,0,0.7,0l0.62,0h0.94v0a0.65,0.65,0,0,0,.34,0h0a0.41,0.41,0,0,0,.17,0H46a1,1,0,0,1,.23,0h0.55v0h0v0H47.3v0h0.25l0.22,0h0l0.46,0h0a0.74,0.74,0,0,0,.4.05h0.6a5.5,5.5,0,0,0,.71,0l0.36,0a0.88,0.88,0,0,0,.33,0h0.2c0.3,0,.8,0,1.33,0h1.08l0.53,0-0.06,0h0a1.34,1.34,0,0,0,.3,0h0.38v0l0.48,0h0.27v0a6,6,0,0,0,.69,0,4.5,4.5,0,0,1,.6,0h0.07l0,0h0.46l0.4,0,0-.1v0.1h0.3v0c0.33,0,.6,0,0.88,0h0.1c0.13,0,.39,0,0.7,0h0.63a3.38,3.38,0,0,1,.41,0,1.46,1.46,0,0,0,.32,0h0.07l0.17,0,0.16,0a1,1,0,0,0,.45,0H63v0h1.16v0a3,3,0,0,0,.62,0c0.61,0,1.55,0,2,0h1.09l0.06,0,0,0c0.27,0,.57,0,0.88,0h0.63a0.2,0.2,0,0,0,.16,0H69.8l1.15,0h0c0.22,0,.75,0,1,0v0h0.83a3.39,3.39,0,0,0,.76,0h0.25l0.16,0H74a0.52,0.52,0,0,0,.17,0l0.74-.06h0v0c0.43,0,.74,0,1,0l0.27,0H77l0.09,0v0c0.26,0,.81,0,1.26,0h0.25v0h0.23a2.22,2.22,0,0,0,.41,0h0.27a0.32,0.32,0,0,0,.18,0h2.19l1,0h0a1.07,1.07,0,0,0,.35,0h0.2v0h2v0a3.21,3.21,0,0,0,.41,0h0.56v0h0.87l0.22,0h1.21c1.44,0,2.92,0,4.34,0a0.21,0.21,0,0,0,.11,0l0.25,0,0,0h1.73a1.76,1.76,0,0,0,.38,0l0.22,0a2.05,2.05,0,0,1,.35,0h1a3.49,3.49,0,0,1,.46,0H97.7c0.46,0,.68,0,0.8,0v0h1.44c1,0,2,0,2.9,0h0c0.35,0,.71,0,1.05,0a11.61,11.61,0,0,0,1.22,0h0v0.1c0,0.36,0,.77,0,1.08,0,0.08,0,.17,0,0.25H105c-1.89,0-3.84,0-5.79,0v0H99l-0.21,0v0H94c-0.9,0-1,0-1.82,0-2.19,0-4.36,0-6.46,0H81.47l-5.93,0-5,0c-0.29,0-.64,0-1,0l-1,0h0c-0.38,0-.57,0-0.87,0l-0.57,0H67a0.42,0.42,0,0,0-.16,0H66.58a3.54,3.54,0,0,0-.42,0l-0.07-.06L66,21.59H65.71A2.38,2.38,0,0,0,65,21.55H62.77l0,0-0.08,0H60.06v0a1.93,1.93,0,0,0-.44,0H59.46v0H55.13a8,8,0,0,1-.94,0H51.5c-1.25,0-2.53,0-3.78,0H46.33c-0.65,0-1.32,0-2,0a0.51,0.51,0,0,0-.17,0h0v0H44c-0.35,0-.77,0-1.22,0h-1c-0.41,0-.91,0-1.38,0s-0.87,0-1.24,0v0H38.45v0H35.79a6.19,6.19,0,0,0-.7,0H34.55l0,0.11,0-.1a4.93,4.93,0,0,1-.63,0v0h-1.8c-0.91,0-1.86,0-2.67,0l-0.14,0H27.32c-0.83,0-1.68,0-2.5,0l-1.41,0H23l-0.7,0a2.92,2.92,0,0,1-.39,0H21.36c-0.43,0-.83,0-1.2,0l0,0H20.08c-0.57,0-1.3,0-1.9,0H17.91a1.69,1.69,0,0,0-.32,0h0v0c-1.22,0-2.29,0-3.42,0H13.81c-0.21,0-.56,0-1,0h-1c-0.4,0-1.08,0-1.44,0H10c0-.23,0-0.46,0-0.69s0-.5,0-0.76h0.34A0.41,0.41,0,0,0,10.49,20.24Zm7.55,0h0v0Zm2.1-.11h0Zm-2,66.69h0v0Zm13.61-.54a4.83,4.83,0,0,1-.62,0v0H29.42c-0.9,0-1.83,0-2.62,0l-0.14,0H24.78c-0.81,0-1.65,0-2.45,0l-1.38,0H20.59l-0.51,0H19.21V86.27H18.49v0.05H17.77l0,0H17.31l-0.13,0H16.78l-0.3.06H13.2l-0.06-.08h-0.6l-0.08,0-0.47,0H10.72l0-.13-0.61,0c0-1.11,0-2.23,0-3.35h0s0-.09,0-0.15v0l0-.19h0c0-.48,0-0.94,0-1.39,0-.68,0-1.34,0-2v0a2.73,2.73,0,0,1,0-.29c0-.15,0-0.24,0-0.29h0a15.86,15.86,0,0,1,0-1.59c0-1.89,0-3.77,0-5.58,0-1.22,0-2.44,0-3.68,0-.24,0-0.47,0-0.71l0,0,0.22-.4-0.26-.17q0-1.06,0-2.11H20.62A66.51,66.51,0,0,0,32.09,77.3v9H31.84v0.06h0v0ZM105,27.71a1.13,1.13,0,0,0,0,.21,0.94,0.94,0,0,1,0,.09s0,0.09,0,.14h0v0.43H105l-0.13.14a0.55,0.55,0,0,0-.12.46v0s0,0.08,0,.11v0.13L105,29.51v0.21c0,0.12,0,.23,0,0.3a0.47,0.47,0,0,0,0,.15,0.91,0.91,0,0,0,0,.24l-0.24,0-0.06.18v0.08a0.49,0.49,0,0,0,.32.54h0v0.33a0.59,0.59,0,0,0,0,.31l0,0.07v0h0v0s0,0.12,0,.19v0.14s0,0.08,0,.12a1.49,1.49,0,0,1,0,.37h0v0.73h0v0.53a0.65,0.65,0,0,0,0,.13h0v0.21l0,0.07v0a1.39,1.39,0,0,1,0,.25,1,1,0,0,0,0,.29v1.59l0,0h0v6.69h0v6h0v9.41l-0.27.08,0,0.41H105v12a0.44,0.44,0,0,0-.24.25l0,0.11a0.81,0.81,0,0,0,0,.1v0.13h0.05l0.12,0.26H105v5.45l-0.19-.12,0,2.09,0.15-.19v6.92l-4.33,0c-1.84,0-3.74,0-5.63,0v0H94.85l-0.21,0v0H89.08l-0.84,0c-2.19,0-4.36,0-6.46,0H76.89l-0.07,0L76.46,86l-0.17.23H76V84.87H75.57v1.37h-6.8a0.94,0.94,0,0,0-.25,0l0,0v0l-0.21,0H62.71l0,0,0,0H53.42v0l-0.41,0-0.14.06H46.64L75.57,28.34V29H76V27.71h3.51l-0.16.2,2.44-.06-0.22-.14H105ZM32.52,64.19H37.4v4.89H32.52V64.19Zm5.32,5.32V64.19H46v8.19H37.84V69.51Zm-5.32,0H37.4v2.87H32.52V69.51Zm39.17-41.8a0.42,0.42,0,0,0,.26.24L72,28h0.22v0l0.34-.14,0-.09H75.4L46.55,85.49V27.71h9.53L56.14,28H56.6V27.71H71.69Zm-51.1,0h0v0ZM20.05,62.54A65.76,65.76,0,0,1,10,30.13c0-.38,0-0.66,0-1.18,0-.12,0-0.2,0-0.28s0-.22,0-0.41a4.9,4.9,0,0,0,0-.61h0.47l0,0.35H11V27.69H11.4a0.45,0.45,0,0,0,.16,0,0.18,0.18,0,0,0,.16-0.08h0.22V28h0.14A2.56,2.56,0,0,0,13,27.95l0.11,0L13,27.64h0a0.42,0.42,0,0,0,.15,0,0.38,0.38,0,0,0,.22,0h0.23v0h0.49l0,0.2L14.53,28l0.16,0a1.05,1.05,0,0,0,.3,0h0.16L16,28.1l-0.21-.34,0.24,0h0.26v0h0.44l0,0h0.33a0.35,0.35,0,0,0,.12,0v0a2.18,2.18,0,0,0,.42,0H18v0a1.07,1.07,0,0,1,.33,0,1.82,1.82,0,0,0,.35,0l0.09,0.33h0.86l0-.35,0.29,0,0.38,0a0.53,0.53,0,0,0,.19,0,1.44,1.44,0,0,0,.33,0l0,0.24L21,28h0.07a0.52,0.52,0,0,0,.56-0.3l0.12,0,0.14,0H22v0H22.2a0.8,0.8,0,0,0,.35,0l0.08,0H22.7v0h0.39l0,0h0.16a2.56,2.56,0,0,1,.49,0v0h0.54l0.22,0h0.13l0.07,0a1.46,1.46,0,0,0,.36,0h0.18a0.48,0.48,0,0,0,.23,0v0l0.17,0h0v0l0.14,0h0a2.28,2.28,0,0,1,.32,0,1.43,1.43,0,0,0,.35,0v0h0.14a0.45,0.45,0,0,0,.17,0,0.82,0.82,0,0,0,.32,0h0.09v0h0.14a1.54,1.54,0,0,0,.46,0l0.13,0h0.13a0.28,0.28,0,0,0,.17.06h0.09l0.11,0h0.76l0.3,0-0.1,0h0.66c1.09,0,2.46,0,3.36-.06,0.13,0,.34,0,0.66,0h0.42v0h0.11l0.27,0c0.3,0,.67,0,1,0h0.14a1.29,1.29,0,0,0,.35,0h0l0.22,0,0,0H37l-0.06.05,0.42,0,0.15,0c0.33,0,1,0,1.47,0v0H39v0c0.44,0,1,0,1.54,0h1.14c0.32,0,.69,0,1,0h0.74v0h0v0l0.13,0h0.43a0.68,0.68,0,0,0,.26,0h0.57a6.52,6.52,0,0,1,.68,0H46V63.76H20.85C20.58,63.35,20.31,62.95,20.05,62.54Zm12,1.65V76.73a66.08,66.08,0,0,1-11-12.54h11Zm0.43,8.63H46V86.2a65.86,65.86,0,0,1-13.44-9.09V72.82ZM45.18,86.28H43.33c-0.63,0-1.27,0-1.91,0a0.49,0.49,0,0,0-.17,0h0v0H41.11c-0.35,0-.77,0-1.21,0h-1c-0.4,0-.88,0-1.34,0s-0.86,0-1.23,0v0H35.66v0H35.43c-0.58,0-.89,0-1.59,0H33.06a4.43,4.43,0,0,0-.54,0v-8.6A66.29,66.29,0,0,0,45.18,86.28ZM10.05,62.79q0-1.5,0-3a0.65,0.65,0,0,0,0-.27h0V59.29h0c0-.36,0-0.72,0-1.09s0-.56,0-0.88,0-.56,0-0.82h0a7.44,7.44,0,0,1,0-.75c0-.13,0-0.28,0-0.49v-0.1h0A0.36,0.36,0,0,0,10,55a1.85,1.85,0,0,1,0-.22,2.9,2.9,0,0,0,0-.35h0l0-.12V54A1.9,1.9,0,0,0,10,53.46c0-.43,0-0.86,0-1.28q0-.32,0-0.64l0,0,0-.06c0-.77,0-1.55,0-2.29,0,0,0,0,0,0h0a1.58,1.58,0,0,0,0-.39s0-.09,0-0.13h0c0-.31,0-0.6,0-0.88s0-.48,0-0.74h0V46.89h0c0-.22,0-0.45,0-0.68h0.06V45.8L10,45.69c0-.13,0-0.24,0-0.34a1.41,1.41,0,0,0,0-.22c0-.07,0-0.14,0-0.21a6.14,6.14,0,0,1,0-.81V44h0V43.34c0-.46,0-0.93,0-1.41,0-1.12,0-2.27,0-3.39,0-.38,0-0.78,0-1.19,0-.56,0-1.14,0-1.71a66.09,66.09,0,0,0,9.65,27.13c0.21,0.33.43,0.66,0.65,1H10.06C10.06,63.44,10.06,63.11,10.05,62.79Zm95.09-40.48s0,0.05,0,.07a0.13,0.13,0,0,0,0,.06h-0.07c0,0.07,0,.12,0,0.17v0.07a1.3,1.3,0,0,0,0,.18,0.4,0.4,0,0,0,0,.14,0.18,0.18,0,0,0,.09.15c0,0.34,0,.7,0,1.05l0,0.05L105,24.12v0.6c0,0.13,0,.23,0,0.35s0,0.28,0,.53v0.1h0v0l-0.09.61a1.07,1.07,0,0,0,0,.31,0.79,0.79,0,0,1,0,.2h0v0.24c-1.9,0-3.86,0-5.81,0v0H98.76v0H93.08l-0.86,0c-2.2,0-4.39,0-6.5,0H80.61l-0.41-.26-0.2.26H72.32a0.59,0.59,0,0,0-.26,0H72l-0.14,0H66.11l0,0,0,0H62.79l0,0-0.05,0H56.61v0l-0.41,0L56,27.12H46.2c-0.61,0-1.24,0-1.86,0a0.5,0.5,0,0,0-.17,0h0v0H44c-0.36,0-.79,0-1.25,0h-1c-0.41,0-.89,0-1.36,0s-0.89,0-1.27,0v0H38.45v0H38.22c-0.6,0-.91,0-1.63,0h-0.8a6.73,6.73,0,0,0-.7,0H34.55V27.2h0v0a4.88,4.88,0,0,1-.63,0v0H32c-0.9,0-1.82,0-2.63,0l-0.14,0H27.34c-0.83,0-1.69,0-2.52,0l-1.41,0H23l-0.47,0H21.63V27.13H20.9v0.05H20.16l0,0H19.69l-0.13,0H19.13l-0.28.05H15.47l-0.07-.08H14.88l-0.1,0H14.67a0.73,0.73,0,0,0-.23.06h-1.5l0-.12-1,0V27.2H11.06V27.1H10.69l-0.23,0v0.1H10l-0.12,0,0.1,0a3.78,3.78,0,0,1,0-.53h0c0-.45,0-1,0-1.56,0-.78,0-1.59,0-2.31l0-.09v0c0-.19,0-0.38,0-0.57l0.69,0H10.8l0.06,0v0.08H11.4a0.44,0.44,0,0,0,.16,0,0.19,0.19,0,0,0,.16-0.09h1.35a0.41,0.41,0,0,0,.15,0,0.39,0.39,0,0,0,.23,0h0.23v0h1.18v0a3.09,3.09,0,0,1,.46,0v0h0.1v0l0.27,0h0.09a1.33,1.33,0,0,0,.28,0h0.26v0h0.44l0,0h0.33a0.35,0.35,0,0,0,.12,0v0a2.18,2.18,0,0,0,.41,0H18v0a1.07,1.07,0,0,1,.32,0,1.93,1.93,0,0,0,.5,0l0-.11,0,0.08,0.21,0A0.76,0.76,0,0,0,19.36,22h0.13v0.08l0.42,0,0.38,0a0.53,0.53,0,0,0,.19,0,1.4,1.4,0,0,0,.34,0v0h0.43v0.05h0.37l0.11,0,0.16,0H22v0H22.2a0.84,0.84,0,0,0,.35,0l0.08,0H22.7v0h0.6a2.47,2.47,0,0,1,.47,0v0h0.54l0.19,0h0.16l0.07,0a1.49,1.49,0,0,0,.35,0h0.19a0.49,0.49,0,0,0,.22,0v0l0.17,0h0v0l0.14,0h0a2.26,2.26,0,0,1,.32,0,1.54,1.54,0,0,0,.35,0v0h0.15a0.45,0.45,0,0,0,.17,0,0.82,0.82,0,0,0,.32,0h0.09v0h0.15a1.72,1.72,0,0,0,.46,0,1.14,1.14,0,0,1,.25,0,0.26,0.26,0,0,0,.18.07h0.09l0.11,0h0.68l0.07,0h0l0.39,0,0.11,0v0h0v0a0.5,0.5,0,0,0,.18,0h0.15c1.08,0,2.45,0,3.36-.06,0.13,0,.36,0,0.69,0h0.38v0h0.11l0.27,0c0.28,0,.63,0,0.92,0h0.19a1.31,1.31,0,0,0,.35,0h0l0.22,0,0,0H37l-0.06.05,0.41,0,0.15,0c0.34,0,1,0,1.48,0v0H39v0c0.44,0,1,0,1.53,0h1.14c0.32,0,.68,0,1,0h0.75V22l0,0.06a2,2,0,0,1,.37,0,0.5,0.5,0,0,1,.18,0,0.62,0.62,0,0,0,.28.05h0.57a6.47,6.47,0,0,1,.68,0l0.6,0h0.92v0a0.63,0.63,0,0,0,.34,0h0a0.4,0.4,0,0,0,.16,0h1v0h0v0h0.47v0h0.24l0.22,0h0c0.08,0,.3,0,0.48,0a0.7,0.7,0,0,0,.39.05H51a5.5,5.5,0,0,0,.69,0l0.35,0a0.82,0.82,0,0,0,.32,0H52.5l0,0h0.09v0c0.29,0,.78,0,1.29,0h1l0.52,0-0.06,0h0a1.35,1.35,0,0,0,.29,0h0.38v0l0.47,0h0.27v0a5.59,5.59,0,0,0,.67,0,4.36,4.36,0,0,1,.59,0h0l0,0,0,0h0.13l0.34,0,0.35,0,0-.1v0.1h0.29v0c0.33,0,.6,0,0.89,0h0.08c0.12,0,.39,0,0.69,0h0.6a3.07,3.07,0,0,1,.39,0,1.46,1.46,0,0,0,.32,0h0.07l0.17,0,0.14,0a1,1,0,0,0,.44,0h1.25v0h1.14v0a3.25,3.25,0,0,0,.6,0c0.57,0,1.49,0,2,0h1.06l0.05,0,0.06,0c0.27,0,.56,0,0.86,0h0.61a0.19,0.19,0,0,0,.15,0H71l1.19,0h0c0.49,0,.8,0,0.94,0v0h0.81a3.39,3.39,0,0,0,.78,0h0.23l0.13,0h0.13a0.44,0.44,0,0,0,.17,0L76.07,22h0v0c0.41,0,.7,0,1,0l0.28,0h0.76l0.09,0h0v0c0.28,0,.91,0,1.37,0h0.1v0h0.22a2.16,2.16,0,0,0,.41,0h0.26a0.31,0.31,0,0,0,.17,0h2.13l1,0h0a1,1,0,0,0,.35,0h0.2v0h1.91v0a3,3,0,0,0,.41,0h0.54v0h0.85l0.33,0h0.87c1.46,0,3,0,4.42,0a0.21,0.21,0,0,0,.11,0l0.26,0,0,0h1.68a1.67,1.67,0,0,0,.37,0l0.22,0a2.07,2.07,0,0,1,.34,0h0.36c0.23,0,.46,0,0.66,0a3.25,3.25,0,0,1,.45,0c0.5,0,.74,0,0.86,0v0h1.31c1,0,2,0,2.92,0v0c0.34,0,.69,0,1,0h0.84C105.14,22.09,105.14,22.21,105.15,22.31ZM22.68,22h0Zm-2.08.1h0v0ZM9.56,17v0h0v0h0Zm11-9.69v0l0,0h0Zm2-.11h0Zm-2-3v0l0,0h0Zm2-.11h0Zm80.61-.19h0ZM20.13,92.6v0l0,0h0Zm2-.11h0Zm0.05,0h0Zm78.52-.19h0ZM18,106.13v0l0,0h0Zm2-.11h0Z"/><path class="cls-1" d="M29.28,95.72h0l0,0.09H29.25L29.32,96a0.82,0.82,0,0,0,0,.32l0,0.06h0a0.18,0.18,0,0,0,0,.14v0l-0.13.14,0.12,0v0l0,0v0.1a0.4,0.4,0,0,0,0,.07v0.16h0v0a0.49,0.49,0,0,0,0,.13v0h0v0l-0.06.27L29,97.71l0.34,0h0v0l0,0h0v0.05a0.18,0.18,0,0,0,0,.05V98a0.19,0.19,0,0,0,0,.1l0,0.11h0a0.55,0.55,0,0,0,0,.07,0.29,0.29,0,0,1,0,0v0l-0.09-.12,0,0.24-0.4.36,0.35-.12,0.1,0,0,0.13,0,0.13-0.06,0,0.08,0.09a0.29,0.29,0,0,0,0,0,0.1,0.1,0,0,1,0,0l0,0h0l-0.18-.07,0.18,0.34a0.64,0.64,0,0,0,0,.2h0l0,0.07-0.07,0,0,0.15,0,0.08h0l0,0.15v0l0,0.06a0.28,0.28,0,0,0,0,.1l0,0.07h0l0.06,0.07,0,0.42h0V101l-0.06,0,0.06,0.23,0,0,0.08,0.29h0v0l0,0.09,0,0,0,0.45-0.3.24h0.27v0h0l-0.09.08,0.08,0.06v0h0l0,0.08,0,0.3-0.1,0,0.11,0.27a0.36,0.36,0,0,0,0,.1h0l0.05,0.23a1.3,1.3,0,0,0,0,.53l0,0,0,0.07a0.52,0.52,0,0,1,0,.16,0.62,0.62,0,0,0,0,.3,0.32,0.32,0,0,0,.17.22l0.22,0.1,0-.24a2.62,2.62,0,0,1,0-.72v-0.27c0-.14,0-0.28,0-0.42a4.25,4.25,0,0,0,0-.54l0,0,0,0V102.3h0l0-.21a0.44,0.44,0,0,1,0-.05l0,0,0-1.09,0-1h0l-0.1-.26,0-.07V99.48a0.18,0.18,0,0,0,0,0,0.28,0.28,0,0,0,0-.07H30l0-.05V99.06h0l0,0L30,99H29.93l0-.06h0l0.07-.06,0,0,0,0.17,0.09-.14,0.06,0.05,0-.11,0-.05v0l0,0,0,0.06,0.11-.17,0,0.1,0.11-.19,0.05,0h0l0.09-.09h0.11l0.06,0h0l0.06,0,0-.09,0-.15h0l0.15,0,0-.06,0.05,0,0.14,0.05,0-.09h0l0,0,0.06-.16a0.51,0.51,0,0,0,.15-0.16h0.06l0,0h0l0,0v0h0l0.2,0.06-0.1-.19,0.21-.14h0L32,97.36l0.06,0v0l0.1-.06v0h0.08V97.14h0v0h0V97.08h0l0,0A0.17,0.17,0,0,0,32.47,97l0.08,0v0l0,0h0l0,0.16,0.14-.18,0.11,0,0,0L33,96.88l-0.08-.23L33,96.59l0.12,0.07V96.49h0l0.11,0.17,0.06-.24v0.24l0.16-.31h0l0.08-.15,0.1,0-0.05,0,0-.06h0V96h0L33.7,96.1l0-.13h0V95.85l0.17-.11,0,0L34,95.69l0,0v0.07l0.08-.12v0l0.13-.22h0l0-.05h0l0.24-.22,0.49,0.18-0.23-.26V95h0l0,0,0-.1,0,0,0-.06L35,94.81l0.05,0.12,0.12-.28,0,0,0,0,0,0h0l0.09-.14a0.77,0.77,0,0,0,.32-0.2h0l0-.06,0.07-.05A0.4,0.4,0,0,0,36,94a0.29,0.29,0,0,0,0-.25l-0.08-.2-0.15.16a1.2,1.2,0,0,1-.36.24h0v0l-0.06,0-0.15.13a2.25,2.25,0,0,1-.24.17,2.45,2.45,0,0,0-.28.2l-0.09-.05v0.15l-0.1.08v0l-0.13.16h0l-0.63.48-0.16.14-0.05-.07v0.12l-0.33.3,0,0L33,95.9h0l0,0h0l0,0h0l-0.06-.1V96l-0.23.21-0.1.07,0-.06v0.15h0s0,0,0,0l0,0h0l-0.12,0v0.07h0l0,0-0.31.26,0,0a0.43,0.43,0,0,0-.15.11L31.59,97l0,0-0.06.07-0.37.09,0.12,0.06-0.06.09L31,97.38l0.07,0.05-0.06,0h0l-0.23.24-0.21-.19,0.11,0.27h0l-0.15-.14,0.08,0.21h0l-0.07-.07L30.4,98h0l-0.11,0v0.06l-0.14.13,0,0,0,0.06-0.05,0-0.07,0v0l0,0v0h0l0-.11,0-.56a0.55,0.55,0,0,1,0-.1,0.69,0.69,0,0,0,0-.23V97.08a0.6,0.6,0,0,0,0-.12,0.31,0.31,0,0,1,0-.07L30,96.54l-0.11.07v0h0v0l0.05,0,0-.17,0.06-.2-0.08,0v0a1.4,1.4,0,0,0,0-.17h0l0-.11a1.07,1.07,0,0,1,0-.17,1.42,1.42,0,0,0,0-.18l0.2,0-0.21-.06,0-.11,0-.07V95.16h0.07L29.85,95v-0.1l0-.06,0,0,0-.33a0.32,0.32,0,0,0,0-.13,0.24,0.24,0,0,1,0-.05l0-.05,0,0a0.38,0.38,0,0,0,0-.07V93.95H30l-0.16-.16a0.21,0.21,0,0,0,0-.06h0l0-.19,0,0-0.09-.14V93.27h0l-0.11-.18-0.08.16-0.14-.09,0.07,0.24v0.1H29.37l0.07,0.2,0,0v0.08a0.6,0.6,0,0,0,0,.07v0l-0.16-.12L29.3,94h0l0,0.09-0.14,0,0.09,0.09h0l0.06,0.27-0.09,0,0.06,0.25a0.16,0.16,0,0,0,0,.13V95l0,0,0,0,0,0.08h0l0,0h0l0,0-0.12.33,0.2-.18v0l0,0.07-0.1.06h0l-0.37.25Zm0.16,6.63h0ZM33.61,96h0Zm1.2-.94h0l0,0Z"/><rect class="cls-1" x="75.57" y="76.23" width="0.43" height="1.72"/><rect class="cls-1" x="75.57" y="73.35" width="0.43" height="1.72"/><rect class="cls-1" x="75.57" y="67.59" width="0.43" height="1.72"/><rect class="cls-1" x="75.57" y="70.47" width="0.43" height="1.72"/><rect class="cls-1" x="75.57" y="81.99" width="0.43" height="1.72"/><rect class="cls-1" x="75.57" y="79.11" width="0.43" height="1.72"/><rect class="cls-1" x="75.57" y="41.68" width="0.43" height="1.72"/><rect class="cls-1" x="75.57" y="38.8" width="0.43" height="1.72"/><rect class="cls-1" x="75.57" y="44.56" width="0.43" height="1.72"/><rect class="cls-1" x="75.57" y="35.92" width="0.43" height="1.72"/><rect class="cls-1" x="75.57" y="47.44" width="0.43" height="1.72"/><rect class="cls-1" x="75.57" y="64.71" width="0.43" height="1.72"/><rect class="cls-1" x="75.57" y="33.04" width="0.43" height="1.72"/><rect class="cls-1" x="75.57" y="30.16" width="0.43" height="1.72"/><rect class="cls-1" x="75.57" y="50.32" width="0.43" height="1.72"/><rect class="cls-1" x="75.57" y="61.83" width="0.43" height="1.72"/><rect class="cls-1" x="75.57" y="58.96" width="0.43" height="1.72"/><rect class="cls-1" x="75.57" y="53.2" width="0.43" height="1.72"/><rect class="cls-1" x="75.57" y="56.08" width="0.43" height="1.72"/><path class="cls-2" d="M33.48,66.9a4.19,4.19,0,0,1,3.22-2.78,16.3,16.3,0,0,1,4.64.43c0.34,0.09-.22.33,0.48,0.6,3.19,0.5,5.14,5.75,3.9,9l-0.1-.21c-0.16.61,0.14,1.46-.09,2.13-0.08,0-.07-0.24-0.21-0.11,0.24,0.23-.22,1.22-0.13,1.55-0.17.23-.37,0.13-0.59,0.41l0.11,0.47c0.17,1.31-1.22,2.38-2,3.69,0-.1.05-0.25-0.07-0.2C41.43,84,38.61,85.7,35.92,86.4c0.09-.13.14-0.33,0-0.4-0.05.35-.89,0.56-1.62,0.72-0.35-.25-1.26.38-2.15,0.22l0.08-.06c-0.66.28-.95-0.24-1.5,0.11l-0.39-.27c-0.34.41-.89-0.38-1.45-0.25v0.09a5.41,5.41,0,0,1-1.2-.3l0-.06c-1.08-.2-1.62-0.61-1.7-0.28-0.28-.36,1.06.18,0.6-0.36a20.26,20.26,0,0,1-9.32-5.33,1.8,1.8,0,0,1-.34-0.73,9.18,9.18,0,0,0-1.3-1.07c0.09,0.08,0-.29-0.14-0.44-0.32-.57-0.73-0.32-1.06-1,0.25,0.17.39,0.18,0.43,0a5.61,5.61,0,0,1-1.5-1.56c0.11,0.06.23,0.19,0.31,0.11a8.52,8.52,0,0,1-1.22-1.75L12.65,74c-0.3-1.09-.51-0.09-0.84-1C12,73.13,12,73,12.09,73c-0.78-.61-1.18-2.05-1.62-2.85a0.07,0.07,0,0,0,.09,0c-0.31-.94-0.55-1.93-0.85-3,0-.4.49,0,0.24-1-0.42.1-.28-1.74-0.69-1.09,0-.92.19-2.32,0.09-2.91,0.13,0.41.5-.41,0.5,0.33L10.11,62c0.16,0.09-.08.56,0.13,0.4a13,13,0,0,1,0-1.75,6.46,6.46,0,0,1-.42-2.47c0.08,0.54.47-.23,0.49,0.13a17.21,17.21,0,0,1-.5-1.65c0.06-.37.32,0,0.34-0.56a0.52,0.52,0,0,1-.17-0.41c0.07-.13.25-1.54,0.66-1.6,0.18-.12-0.06.6,0.17,0.24A10.13,10.13,0,0,1,11,53h0.05c0.19-.41.25-1.31-0.1-0.91-0.11.3,0.26,0,0,.37a4,4,0,0,1,.28-1.82,0.45,0.45,0,0,0,.17.38A10.54,10.54,0,0,1,12,48.05c-0.16-.09.15,0.49,0,0.59,0.7-1.13.82-2.66,1.69-3.46-0.06.18-.27,0-0.22,0a4.52,4.52,0,0,0,.66-0.81,2.3,2.3,0,0,0,.41-0.87c0-.25.13-0.05-0.07,0.27a11.85,11.85,0,0,1,2.4-3.67,2.32,2.32,0,0,1,.46-1.15l0.11,0.25c0.3-.13.66-0.85,0.85-0.75,0.21-.72-1.47,2.19-1.06,1.33,0.3-.05.52-1.24,0.64-0.88a3.61,3.61,0,0,1,1.22-1.42c-0.15.1-.12,0.6,0.23,0.22a5,5,0,0,0,.56-0.84l0.26-.4c-0.14-.19.6-0.56,0.18-0.51,0.19,0,.9-1,1.1-0.63l0.1,0.31a2.74,2.74,0,0,0,.44-1,0.2,0.2,0,0,1,.19,0c-0.25-.41.75-0.57,0.9-1.15a7.65,7.65,0,0,1,2.24-1.17,4.79,4.79,0,0,1,1.53-1.23,0.56,0.56,0,0,0-.25.34,1.89,1.89,0,0,0,.84-0.53,8,8,0,0,0,1.46-.25c0.5-.41.19-0.54,0.18-0.71,0.7,0.13,1.5-1.06,2.35-.9-0.18.14-.77,0.54-0.24,0.46,0.71,0.23,1-.73,1.91-0.85l-0.34-.28c0.46,0.07,1.22-.7,1.26-0.27,0.26-.21,1.1-0.16.9-0.49,1.55-.13,3.6-1.11,4.66-0.52,0.21-.1.75-0.11,0.62-0.29a1.85,1.85,0,0,0-.64.1,0.25,0.25,0,0,0,.23-0.2c0.48,0,.86,0,0.46.36,1.07,0.11,1-.88,2.36-0.78,0,0.16.06,0.21,0.45,0.17l0.73-.3c0.88,0,.51.33,0.54,0.59a2.77,2.77,0,0,0,1.23-.29l0.56,0.3c-0.41-.23.38-0.17,0.6-0.21l-0.22.06a1.75,1.75,0,0,0,.89,0,1.68,1.68,0,0,0-.9-0.3c0.24-.11.6-0.07,0.92-0.2-0.11.26,0.75,0.21,1.12,0.25a0.92,0.92,0,0,0,.61-0.2c0,0.14.69,0.09,0.35,0.24a1.22,1.22,0,0,0-.56-0.05,0.8,0.8,0,0,0,.81.23c0.44-.09-0.07-0.52.74-0.28a1.65,1.65,0,0,0-.45.22l0.76,0.2,0.06-.23c0.1,0.07,0,.08.07,0.12,0.26-.23,1.18,0,1.39-0.21a8.94,8.94,0,0,1,1.16.37H53.4a2.41,2.41,0,0,0,1.44.11l0,0a3.07,3.07,0,0,0,1.16.08c0.58,0.3,0,.91.76,0.77,0.62,0.12,1.07-.21.86-0.42,1.06,0.46,2.44.38,3.35,1.07a0.57,0.57,0,0,1,.44-0.08c1.58,0.57,3.46.92,4.54,1.83-0.49-.09-0.12.2-0.16,0.33,0.45,0,.35.39,0.63,0.12,0-.21.12-0.29-0.28-0.56a8.81,8.81,0,0,1,2.78,1.33c-0.21-.21,0-0.17.24-0.14-0.21.28,0.43,0.65,1,.79L70.27,32l0.23,0.35c0.22,0,.41-0.28.82,0.15a0.39,0.39,0,0,0,0,.28,4,4,0,0,1,1.9.74L73.55,34c0.25,0.1.73,0.19,0.37-.14a6.14,6.14,0,0,1,1.54,1.5,16.6,16.6,0,0,1,5.82,3.31l-0.15.08c0.37,0.47.4,0,.65,0.31-0.24,0,.14.53-0.32,0.39,0.54,0.65,1,.46,1.45.74,0.19-.11-0.42-0.17-0.17-0.3s0.79,0.84,1.08.69c0.08,0.23-.19.3-0.35,0.32l0.47,0.22c0.23,0.67-1.48-.42-1.27.34l0.38,0.26c0.13,0.53-1.15-.5-0.35.32,0.47,0.21,1.08.16,0.84-.24,0.84,0.63.84-.23,1.67,0.53,0.11,0.34-.71-0.57-0.71-0.23,0.23,0.54.89,0.6,1.18,1-0.31-.44.23-0.37,0.52-0.17,0.32,0.51-.47,0,0.1.54,0.22,0,.85.39,0.47-0.15,0.49-.09.54,0.67,1.08,0.76,0,0.38-1.06-.11-0.52.61,0.09-.3,1.05.51,1-0.11,0.19,0.31.06,0.49-.23,0.42,0.22,0.48,1.2.53,0.92,1l0.32-.07c0,0.18.15,0.39,0.22,0.67,0.31,0.31,1.24.8,0.9,1,0.13,0.08.78,0.85,0.74,0.36-0.28-.59-0.64-0.4-0.58-0.93a1.35,1.35,0,0,0,1,.86l-0.08.15a2,2,0,0,0,.72.51c-0.18-.07-0.21.07-0.12,0.23h0.34c0.66,0.6-.2.44,0.39,1.06l-0.56-.38a3.23,3.23,0,0,0,.44.73c0.27,0,.67,0,0.9,0,0.38,0.31-.06.33,0.42,0.55l-0.61-.31a1.15,1.15,0,0,0,.38,1.05c0.31,0.28.95,0.6,0.66,0,0.2,0.26.36,0.71,0.07,0.6,0.5,0.54.14-.23,0.63,0.2,0,0.3.34,1.08,0.45,1.59l-0.7-.31L95.16,54c-0.58-.27,0,0.36-0.47.3a2.58,2.58,0,0,0,.65.69c-0.07-1,1.12.41,1.37-.06,0.78,0.93-.51,1.24.77,1.89,0-.24.6,0.07,0.09-0.5,0.35,0.67.66,0.18,1,1-0.5-.45,0,0.85-0.77.19,0.16,0-.17-0.51-0.29-0.61,0,0.36-.43.2,0,0.84,0.28,0.37.62,0.9,0.78,0.7s-0.4-.59,0-0.48c0.56,0.75.31,1.07,0.9,1.17-0.32-.49-0.17-0.75,0-0.84l0.45,0.53-0.22,0c0.42,1,.44.12,0.91,1.08l-0.06.61c-0.39-.07-0.63-1.42-1-1a8,8,0,0,1,.85,1.32l-0.32-.38a1.4,1.4,0,0,0,.45,1.43c0.36,0.38.22,0,.39,0,0.54,1,.86,1.18,1.2,1.81-0.38,0,.5,1.16-0.16.6a3.44,3.44,0,0,0-1.18-2c-0.2.56-.33-0.81-0.84-0.8a0.81,0.81,0,0,1-.17,1.19,1.66,1.66,0,0,0,.4.49,1,1,0,0,0,.36-0.44,6.14,6.14,0,0,0,1.37,2.08c0,0.36-.26.37-0.44,0A18.52,18.52,0,0,1,102.47,68c0.14-.83.53,1.12,0.69,0.54-0.12-.59,0-1.19.27-0.94,0.11,0.36-.18.06-0.21,0.24,0.39,0.37-.08.82,0.43,1.14-0.51-1-.56,0-0.94-0.08,0.45,0.65-.23.05,0,0.76a14.5,14.5,0,0,1,1.18,2.29,17.33,17.33,0,0,0,1,3.54c-0.06.53-.49,0.28-0.45,0.82s0.3-.55.32,0.41l-0.09-.07c0.14,0.26.12,1.72,0.67,1.91l-0.44-.22a1,1,0,0,0,.17.46c-0.13,0-.22.25-0.35,0a3.92,3.92,0,0,0,.33,1.8l0.18-.43a15.41,15.41,0,0,1,.34,2.81h-0.24l0.2,0.6c-0.24-.13-0.34.44-0.15,0.75-0.19-.53-0.45-1-0.69-1.55,0.1-.45.33,0.46,0.53,0.16a1.47,1.47,0,0,0-.21-1.33,1.25,1.25,0,0,0,.17.65c-0.31.15-.35-0.4-0.59-0.65a0.85,0.85,0,0,0,.06.5,4,4,0,0,1-.34-1.34c0.19,0.4.17-.25,0.28-0.11-0.29,0-.47-0.58-0.5-1.35,0.26-.6-0.44-1.38-0.54-2.26a3.26,3.26,0,0,1,.91,1.21c0-.58-0.14-0.61-0.11-1.19a2.09,2.09,0,0,1-.91-1l0.2-.09c-0.24-.62-0.57-0.54-0.72-1.36a31.66,31.66,0,0,0-1-3.87l0.19-.11c-0.62-.43-0.87-1.85-1.35-2.54-0.35-1.36-1.36-2.7-1.36-3.49-1.23-2.15-2.39-4-3.68-6.15l0.49,0.2c-0.43-.27,0-0.35-0.28-0.71,0.06,0.58-.59-0.36-0.94-0.51a8.08,8.08,0,0,0-2.25-2.8l0.15-.16c-0.91-.58-1.37-1.75-2.13-2.77a1.16,1.16,0,0,0-.27-0.75,8.1,8.1,0,0,1-1.75-1.2c-0.47-.56-1.22-1.48-1.65-2.11C84.85,46,83,43.83,80.59,42.26V41.93c-2.47-1.33-5-3.68-7.14-4.66L73.87,37c-0.56-.5-1.5-0.79-1.49-0.43-0.58-.48-1.71-0.71-2-1.26a4.31,4.31,0,0,0-1.5-.49,12.19,12.19,0,0,0-3.14-1.52L66.1,33.5c0.18,0,.27-0.19,0-0.36-0.53-.11-1.76-0.88-1.46-0.2-1.3-.84-3.38-1-4.66-1.82,0.08,0.17-.28.08-0.46,0.13-1.28-.32-2.55-1-3.64-1-0.19-.11.38-0.17-0.14-0.29a4.26,4.26,0,0,1-.44.18c-2.13-.19-4.23-1-6.19-1.05a60.82,60.82,0,0,0-10.27.8l0-.11c-1,.55-2.6.24-3.3,1-0.28,0-1,.2-0.84,0-0.72.58-2.39,0.62-3.42,1.41A1,1,0,0,0,31.51,32c-1.25.34-2.1,1.15-3.4,1.58a0.83,0.83,0,0,0,.29-0.36c-0.58,0-.82,1-1.33.75-0.25.17,0,.33,0.1,0.22-2.68,1.32-4.81,3.78-6.81,6-1.61,1.51-.72-0.44-1.54,1.15-0.17.05,0.08,0.2,0,.15-0.31.61-1.13,0.47-1.17,1,0.36,0,0,.36.11,0.48-0.9,1-1.32,1.09-1.69,2.13L16,45.06c-0.18,1.35-1.16,2.49-1.09,3.68C12.24,54.89,11.15,62.11,12.52,68c1.54,6,6.07,11.13,11.58,14.31A4.6,4.6,0,0,0,27,83.8c-0.09,0-.19,0-0.11.12,0.19-.31,1.13.3,1.36,0a15,15,0,0,0,6.7.26c-0.35.09-.5,0.4-0.06,0.31l0.41-.3,0.09,0.08c0.28-.13.54-0.37,0.22-0.4a11.72,11.72,0,0,0,8.54-12.7,5.21,5.21,0,0,0-2-3.6c-1.08-1.43-3.41-2.12-5.14-2.08s-3.44,2.1-3.27,3.79c0.11,0-1.13-.47-0.32-2.4"/><path class="cls-3" d="M21.56,104.42a4.92,4.92,0,0,1-.41,1.08s0,0-.07,0q-1.15.19-2.28,0.31a21.52,21.52,0,0,1-2.28.12,7.2,7.2,0,0,1-2.67-.48,6.29,6.29,0,0,1-2.11-1.35,6.2,6.2,0,0,1-1.39-2.07,6.76,6.76,0,0,1-.51-2.64,8.27,8.27,0,0,1,.52-3,6.07,6.07,0,0,1,1.46-2.22,6.32,6.32,0,0,1,2.28-1.37,9,9,0,0,1,3-.47,11.81,11.81,0,0,1,1.31.07l1.26,0.17,0.94,0.13,0.91,0.11a0.09,0.09,0,0,1,.1.1q0,0.84-.14,1.67t-0.22,1.62a0.1,0.1,0,0,1-.19,0,3.68,3.68,0,0,0-.49-1.39,3.53,3.53,0,0,0-.91-1,4,4,0,0,0-1.23-.6A5,5,0,0,0,17,93a6.22,6.22,0,0,0-2.27.4A5.07,5.07,0,0,0,13,94.54a4.9,4.9,0,0,0-1.13,1.74,6.25,6.25,0,0,0-.4,2.27,7,7,0,0,0,.47,2.54,6.88,6.88,0,0,0,1.31,2.15,6.49,6.49,0,0,0,2,1.5,5.66,5.66,0,0,0,2.52.56,4.72,4.72,0,0,0,1.33-.17,3,3,0,0,0,1.75-1.32,9.14,9.14,0,0,0,.64-1.2,0.09,0.09,0,0,1,.11,0,0.15,0.15,0,0,1,.08.1c0,0.1,0,.19,0,0.29s0,0.2,0,.31a4.76,4.76,0,0,1-.14,1.15"/><path class="cls-3" d="M35.93,102.25a6.64,6.64,0,0,1-1.5,2.06,6.82,6.82,0,0,1-2.17,1.35,7.14,7.14,0,0,1-2.61.48,5.63,5.63,0,0,1-2.34-.55,9,9,0,0,1-2.22-1.44,8.17,8.17,0,0,1-1.67-2,4.48,4.48,0,0,1-.66-2.28,12.2,12.2,0,0,1,.32-3A5.15,5.15,0,0,1,26,93.23a12.84,12.84,0,0,1,2.88-.93l0.31,0a6,6,0,0,1,2.86.45,7,7,0,0,1,2.31,1.59,7.49,7.49,0,0,1,1.55,2.42,7.75,7.75,0,0,1,.56,2.93,6,6,0,0,1-.56,2.58m-1.39-5a6.87,6.87,0,0,0-1-2.12,5.42,5.42,0,0,0-1.68-1.51,4.48,4.48,0,0,0-2.29-.58,5.08,5.08,0,0,0-2.17.45,4.55,4.55,0,0,0-1.6,1.23,5.57,5.57,0,0,0-1,1.8,6.68,6.68,0,0,0-.35,2.18,8.09,8.09,0,0,0,.36,2.38,6.93,6.93,0,0,0,1.07,2.13,5.72,5.72,0,0,0,1.72,1.54,4.48,4.48,0,0,0,2.31.59,4.65,4.65,0,0,0,3.74-1.72,5.38,5.38,0,0,0,1-1.81,7.26,7.26,0,0,0,.32-2.19,8.28,8.28,0,0,0-.35-2.36"/><path class="cls-3" d="M54.84,105.82H52.9q-1,0-1.9,0c-0.1,0-.13,0-0.1-0.12l0-.1a0.39,0.39,0,0,1,0-.1l0.14-.43a1.3,1.3,0,0,0,.07-0.41q0-1.37-.13-2.7t-0.3-2.68c-0.06-.54-0.12-1-0.18-1.45s-0.1-.92-0.13-1.48q-0.91,1.75-1.75,3.51T47,103.36l-0.56,1.19-0.57,1.19a0.07,0.07,0,0,1-.07,0,0.13,0.13,0,0,1-.1,0,23.38,23.38,0,0,1-1.91-3.14Q43,101,42.28,99.4q-0.38-.84-0.68-1.53t-0.71-1.5q-0.07.6-.15,1.17L40.6,98.65q-0.19,1.49-.34,3t-0.14,3a0.68,0.68,0,0,0,.22.59,2.3,2.3,0,0,0,.53.28l0.27,0.11,0.22,0.08a0.1,0.1,0,0,1,0,.12,0.09,0.09,0,0,1-.1.07H40.64l-0.66,0-0.67,0H38.15a2.82,2.82,0,0,0-.48,0s-0.08,0-.1-0.07a0.09,0.09,0,0,1,0-.12,1.27,1.27,0,0,1,.29,0,3.53,3.53,0,0,0,.46-0.11,0.71,0.71,0,0,0,.36-0.32,2.9,2.9,0,0,0,.13-0.62q0.08-.55.19-1.41t0.24-1.94q0.13-1.08.25-2.21t0.24-2.22q0.12-1.09.22-2t0.14-1.41q0-.61.1-0.88a0.08,0.08,0,0,1,.06-0.09,0.12,0.12,0,0,1,.11,0,7.85,7.85,0,0,1,.82,1.24q0.53,0.93,1.14,2.15t1.27,2.6q0.66,1.37,1.21,2.55c0.27,0.56.5,1,.67,1.44s0.34,0.74.48,1q0.38-.77.78-1.67l0.78-1.79Q48.41,98,49.34,96a26.15,26.15,0,0,1,2-3.56,0.1,0.1,0,0,1,.1,0,0.07,0.07,0,0,1,0,.08c0,0.19.06,0.46,0.08,0.8s0.06,0.74.11,1.19,0.11,1.24.18,1.95,0.15,1.43.23,2.16,0.16,1.46.24,2.15,0.16,1.34.25,1.91,0.17,1.06.25,1.45a2,2,0,0,0,.24.73,1.34,1.34,0,0,0,.51.49,2.07,2.07,0,0,0,.58.16,1.58,1.58,0,0,0,.35.06,1,1,0,0,1,.37.11Z"/><path class="cls-3" d="M64.2,97.33a4.41,4.41,0,0,1-.78,1.33,4,4,0,0,1-1.2,1,3.25,3.25,0,0,1-1.51.36,4.84,4.84,0,0,1-1-.12,0.09,0.09,0,0,1-.06-0.11,0.08,0.08,0,0,1,.08-0.08H60.1a2.81,2.81,0,0,0,2.16-.85,3.1,3.1,0,0,0,.79-2.2,3.81,3.81,0,0,0-.19-1.19,3.65,3.65,0,0,0-.55-1.07,2.91,2.91,0,0,0-.88-0.78,2.28,2.28,0,0,0-1.17-.3,2.77,2.77,0,0,0-1.25.29v10.6a1.49,1.49,0,0,0,.36,1.13,1.88,1.88,0,0,0,1.18.39s0.07,0,.07.09,0,0.1-.07.1H57l-0.79,0a0.08,0.08,0,0,1-.08-0.08,0.09,0.09,0,0,1,.06-0.11,2.4,2.4,0,0,0,.67-0.19,0.79,0.79,0,0,0,.35-0.31,1.12,1.12,0,0,0,.12-0.49c0-.2,0-0.44,0-0.71V94.08a1,1,0,0,0-.43-0.83A2.55,2.55,0,0,0,56,92.81a0.09,0.09,0,0,1-.06-0.11A0.08,0.08,0,0,1,56,92.62c0.5,0,1,.08,1.44.08H61a6.8,6.8,0,0,1,1.46.14,2.82,2.82,0,0,1,1.11.49,2.16,2.16,0,0,1,.7.95,4.09,4.09,0,0,1,.24,1.51,4.32,4.32,0,0,1-.28,1.52"/><path class="cls-3" d="M75.82,105.79l-0.64,0-0.4,0H74.37c-0.37,0-.74,0-1.1,0l-1.11.1a0.1,0.1,0,0,1-.1-0.07,0.1,0.1,0,0,1,0-.12l0.94-.46q-0.41-1.13-.85-2.22t-0.85-2.25H67.62l-0.35.92q-0.23.61-.44,1.27t-0.38,1.25a3.57,3.57,0,0,0-.17.85,0.45,0.45,0,0,0,.31.47,3.66,3.66,0,0,0,.6.16v0.19l-0.93-.08q-0.48,0-1,0t-1,0l-1,.08s-0.08,0-.08-0.07a0.1,0.1,0,0,1,.06-0.12,2.2,2.2,0,0,0,1.85-1.39v0q0.7-1.75,1.34-3.51t1.27-3.54q0.43-1.2.84-2.39t0.86-2.39a0.09,0.09,0,0,1,.1-0.07,0.09,0.09,0,0,1,.1.07q0.12,0.34.25,0.66c0.09,0.22.17,0.44,0.25,0.66q1,2.69,2.05,5.41a53.23,53.23,0,0,0,2.44,5.31,1.82,1.82,0,0,0,.73.79,2.56,2.56,0,0,0,1,.29v0.19a2.87,2.87,0,0,1-.64,0M69.49,94.92q-0.41,1.28-.78,2.49t-0.83,2.51H71Z"/><path class="cls-3" d="M91.55,92.92a0.06,0.06,0,0,0-.06,0c-0.22.06-.46,0.14-0.71,0.24a0.51,0.51,0,0,0-.37.51l0,5.79v1q0,1.4,0,2.75t-0.17,2.73a0.1,0.1,0,0,1-.06.08,0.08,0.08,0,0,1-.11,0q-1.15-1-2.31-2.13t-2.27-2.33q-1.12-1.19-2.2-2.4t-2.07-2.37q-0.34-.36-0.6-0.68T80,95.41a11.08,11.08,0,0,0-.07,1.25q0,0.91,0,1.83T80,100.31c0,0.61.05,1.22,0.07,1.83s0,1.23,0,1.85a2.46,2.46,0,0,0,.07.66,1.18,1.18,0,0,0,.18.4,0.57,0.57,0,0,0,.26.2,1.3,1.3,0,0,0,.32.09l0.38,0.11a1.7,1.7,0,0,1,.46.25,0.12,0.12,0,0,1,0,.11,0.07,0.07,0,0,1-.08.06l-0.47,0-0.47,0-0.69-.07-0.68,0a6.88,6.88,0,0,0-.89.06l-0.91.13a0.08,0.08,0,0,1-.11,0,0.1,0.1,0,0,1,0-.12,2.82,2.82,0,0,1,.35-0.26l0.3-.17a1.75,1.75,0,0,0,.52-0.4,1.17,1.17,0,0,0,.23-0.8V92.81l0.19-.38a0.16,0.16,0,0,1,.07-0.07,0,0,0,0,1,.07,0q2.62,2.72,5.07,5.35t5,5.45V103.1q0-1.11,0-2.19c0-.72,0-1.46,0-2.21s0-1.42,0-2.2,0-1.51,0-2.2a2.19,2.19,0,0,0-.08-0.66,0.9,0.9,0,0,0-.23-0.39,0.8,0.8,0,0,0-.31-0.18L88.25,93l-0.35-.06a0.56,0.56,0,0,1-.28-0.16,0.1,0.1,0,0,1,0-.12s0.05-.06.08,0a8.17,8.17,0,0,0,1,.07h1.65a5.65,5.65,0,0,1,.66,0h0.53l0.05,0.19a0.07,0.07,0,0,1-.06,0"/><path class="cls-3" d="M104.38,93.57a13.94,13.94,0,0,0-1.15,1.2q-0.61.71-1.21,1.53a18.85,18.85,0,0,0-1.07,1.61,15,15,0,0,0-.77,1.47,2.84,2.84,0,0,0-.3,1.08v3.94a0.75,0.75,0,0,0,.17.49,1.81,1.81,0,0,0,.41.36,2.28,2.28,0,0,0,.53.25,4.48,4.48,0,0,0,.53.14,0.09,0.09,0,0,1,.06.11,0.08,0.08,0,0,1-.08.09l-1,0H98.31c-0.38,0-.78,0-1.18,0a0.08,0.08,0,0,1-.08-0.07,0.11,0.11,0,0,1,.06-0.12,2.16,2.16,0,0,0,.73-0.51,1.11,1.11,0,0,0,.33-0.8v-3.65a2.75,2.75,0,0,0-.31-1A16.73,16.73,0,0,0,97,98.19q-0.5-.84-1.12-1.73t-1.21-1.65a13.7,13.7,0,0,0-1.13-1.27,2.44,2.44,0,0,0-.84-0.61,0.09,0.09,0,0,1-.06-0.11,0.08,0.08,0,0,1,.08-0.08l1.09,0.08c0.34,0,.7,0,1.07,0a13.83,13.83,0,0,0,1.39-.07,0.1,0.1,0,0,1,.07.17s0,0,0,0,0,0,0,0l-0.27.24a0.36,0.36,0,0,0-.13.26,3,3,0,0,0,.39.88q0.38,0.71.91,1.61c0.35,0.6.71,1.21,1.08,1.82l0.89,1.47c0.1-.18.25-0.43,0.46-0.77s0.42-.7.65-1.08L101,96.27c0.24-.4.46-0.79,0.67-1.17s0.38-.71.52-1a1.83,1.83,0,0,0,.2-0.58,0.51,0.51,0,0,0-.13-0.36,1.09,1.09,0,0,0-.33-0.24,0.11,0.11,0,0,1,0-.13,0.07,0.07,0,0,1,.09-0.06,4.34,4.34,0,0,0,.66.1l0.68,0,0.89,0,0.84-.07h0.24l0,0.19a3.09,3.09,0,0,0-.92.64"/><path class="cls-3" d="M28.57,4.13H28a1.51,1.51,0,0,0-.5,0L27,4.16l-0.84.07a7.31,7.31,0,0,1-1.38,0L23.37,4a0.08,0.08,0,0,0-.11,0,0.08,0.08,0,0,0,0,.11,0.78,0.78,0,0,0,.38.18l0.43,0.08,0.48,0.1a0.94,0.94,0,0,1,.44.23,1.22,1.22,0,0,1,.32.53,3,3,0,0,1,.12.94q0,3,.07,5.94t0.07,5.94v0.19q-3.36-3.79-6.7-7.38-3-3.22-6.14-6.46a4,4,0,0,1-.58,0,3.38,3.38,0,0,1-.47,0Q11.65,5,11.61,6t0,2.17c0,0.81,0,1.65,0,2.53q0,1.93,0,3.79t0,3.17c0,0.41,0,.77,0,1.07v0.67a2.44,2.44,0,0,1-.08.7,1.33,1.33,0,0,1-.23.45,1.16,1.16,0,0,1-.33.29L10.58,21l-0.38.24c-0.13.08-.27,0.18-0.43,0.31a0.09,0.09,0,0,0,0,.12s0.05,0.06.08,0l1.24-.17a10.43,10.43,0,0,1,1.21-.07q0.45,0,.89,0l0.87,0.08,0.67,0.07,0.67,0a0.07,0.07,0,0,0,.08-0.06,0.11,0.11,0,0,0,0-.11,1.82,1.82,0,0,0-.6-0.32,5,5,0,0,0-.55-0.13A3.44,3.44,0,0,1,13.85,21a0.86,0.86,0,0,1-.36-0.25,1.21,1.21,0,0,1-.24-0.52,4.32,4.32,0,0,1-.08-1q0-1.24,0-2.46c0-.81-0.06-1.63-0.1-2.46s-0.06-1.68-.1-2.49,0-1.63,0-2.44c0-.3,0-0.6,0-0.88S13,8,13,7.67c0.32,0.35.6,0.67,0.85,1l0.85,1q2.81,3.22,5.72,6.39a72.7,72.7,0,0,0,6.15,6,0.08,0.08,0,0,0,.11,0,0.1,0.1,0,0,0,.06-0.08q0.19-2.19.25-4.35T27,13.22v-2c0-.65,0-1.3,0-2s0-1.3,0-2v-2A0.69,0.69,0,0,1,27.12,5a0.94,0.94,0,0,1,.35-0.29,2.75,2.75,0,0,1,.46-0.18l0.47-.14,0.1,0,0.1,0Z"/><path class="cls-3" d="M13,4.68a4.72,4.72,0,0,1-.4-0.54H12.29a10.57,10.57,0,0,1-1.21-.07L9.84,3.92s-0.06,0-.08,0a0.1,0.1,0,0,0,0,.12c0.16,0.13.3,0.23,0.43,0.31l0.38,0.24L11,4.86a1.2,1.2,0,0,1,.33.29,1.33,1.33,0,0,1,.23.45,2.22,2.22,0,0,1,.07.48,3.53,3.53,0,0,1,1.59-.27,2.65,2.65,0,0,1,.06-0.38,0.85,0.85,0,0,1,.18-0.27C13.31,5,13.14,4.82,13,4.68"/><path class="cls-3" d="M41.47,20l-0.63,0-0.39,0H40c-0.37,0-.73,0-1.1,0l-1.1.1A0.09,0.09,0,0,1,37.74,20a0.1,0.1,0,0,1,0-.12l0.93-.45q-0.41-1.12-.85-2.21T37,14.94H33.34L33,15.86q-0.23.61-.44,1.27t-0.38,1.24a3.6,3.6,0,0,0-.17.85,0.44,0.44,0,0,0,.31.47,3.72,3.72,0,0,0,.59.15V20L32,19.94c-0.32,0-.63,0-1,0s-0.63,0-1,0l-1,.08S29,20,29,20a0.1,0.1,0,0,1,.06-0.12,2.18,2.18,0,0,0,1.84-1.38v0q0.69-1.74,1.33-3.48t1.26-3.51q0.43-1.19.83-2.37t0.86-2.37a0.09,0.09,0,0,1,.09-0.07,0.09,0.09,0,0,1,.1.07c0.08,0.22.16,0.44,0.25,0.66s0.17,0.43.25,0.66q1,2.67,2,5.37a52.07,52.07,0,0,0,2.42,5.27,1.79,1.79,0,0,0,.73.79,2.54,2.54,0,0,0,1,.29V20a2.83,2.83,0,0,1-.63,0M35.19,9.19q-0.41,1.26-.77,2.47T33.6,14.15h3.07Z"/><path class="cls-3" d="M52.8,7.73a1.35,1.35,0,0,0-.33.89V15a6,6,0,0,1-.36,2.08,5.28,5.28,0,0,1-1,1.71,4.6,4.6,0,0,1-1.56,1.15,4.91,4.91,0,0,1-2.06.42,5,5,0,0,1-1.63-.28,5.62,5.62,0,0,1-1.49-.78,6.3,6.3,0,0,1-1.23-1.17,4.64,4.64,0,0,1-.8-1.46,1.81,1.81,0,0,1-.11-0.51c0-.23,0-0.49,0-0.79s0-.62,0-1,0-.7,0-1.05,0-.82,0-1.22,0-.76,0-1.1V8.64a1.16,1.16,0,0,0-.37-1,2.78,2.78,0,0,0-1-.45,0.09,0.09,0,0,1-.06-0.11A0.08,0.08,0,0,1,40.82,7q1.36,0.07,2.69.07h0.74l0.74,0a0.09,0.09,0,0,1,.1.07,0.1,0.1,0,0,1,0,.12,3.24,3.24,0,0,0-.77.56,1.09,1.09,0,0,0-.4.8l0,7.3a3.76,3.76,0,0,0,.27,1.47,3.17,3.17,0,0,0,.77,1.12,3.64,3.64,0,0,0,1.18.73,4,4,0,0,0,1.47.26,4.21,4.21,0,0,0,1.5-.26,3.5,3.5,0,0,0,1.19-.74A3.29,3.29,0,0,0,51,17.35a3.92,3.92,0,0,0,.27-1.5l0-7.2a1.3,1.3,0,0,0-.36-1,2,2,0,0,0-1-.44,0.09,0.09,0,0,1-.06-0.11A0.08,0.08,0,0,1,49.85,7a12.6,12.6,0,0,0,1.31.07h1.62c0.29,0,.57,0,0.86,0l0,0.19a1.43,1.43,0,0,0-.86.49"/><path class="cls-3" d="M65.58,8.07a5.17,5.17,0,0,1-.17,1.15,0.1,0.1,0,0,1-.1.07,0.08,0.08,0,0,1-.07-0.07,1.51,1.51,0,0,0-.75-1.11,3,3,0,0,0-1.32-.27h-2.1V18.07a1.69,1.69,0,0,0,.43,1.17,1.87,1.87,0,0,0,1.1.6,0.09,0.09,0,0,1,.06.11,0.08,0.08,0,0,1-.08.08l-1.21-.08c-0.4,0-.8,0-1.22,0l-0.93,0L58.28,20s-0.08,0-.08-0.07a0.09,0.09,0,0,1,.06-0.12,3.47,3.47,0,0,0,.63-0.2,0.85,0.85,0,0,0,.35-0.27,0.88,0.88,0,0,0,.14-0.44c0-.18,0-0.41,0-0.68V7.86H56.54a1.46,1.46,0,0,0-1,.38,2.25,2.25,0,0,0-.62.88,0.07,0.07,0,0,1-.1,0,0.09,0.09,0,0,1-.07-0.1l0-.31A2.69,2.69,0,0,1,54.81,8L55,7.36,55.09,7l0.09-.32c0-.08.08-0.1,0.14,0a1.84,1.84,0,0,0,.73.3,5.11,5.11,0,0,0,.8.06h7.63a2.47,2.47,0,0,0,.67-0.12l0.17,0,0.17,0L65.6,6.9c0,0.37,0,.76,0,1.17"/><path class="cls-3" d="M70.26,20H68.1l-1.26,0A0.08,0.08,0,0,1,66.76,20a0.08,0.08,0,0,1,.06-0.11,1.62,1.62,0,0,0,.87-0.66A2,2,0,0,0,68,18.16V8.26a0.81,0.81,0,0,0-.37-0.76,2.42,2.42,0,0,0-.87-0.29,0.09,0.09,0,0,1-.06-0.11A0.08,0.08,0,0,1,66.74,7l1,0.07,1,0,1,0c0.33,0,.66,0,1-0.09,0,0,.08,0,0.09.07a0.08,0.08,0,0,1,0,.12,3.72,3.72,0,0,0-.84.29,0.81,0.81,0,0,0-.32.79v9.83a2,2,0,0,0,.35,1.3,1.74,1.74,0,0,0,1.2.47V20H70.26"/><path class="cls-3" d="M80.43,17.71a0.79,0.79,0,0,0,0,.14c0,0.35-.07.69-0.11,1a3,3,0,0,1-.3,1,0.14,0.14,0,0,1,0,.1,0.2,0.2,0,0,1-.14.14C79.26,20,78.63,20,78,19.94s-1.27,0-1.92,0l-1.57,0-1.57,0h-0.5s-0.07,0-.07-0.1,0-.09.07-0.09a0.9,0.9,0,0,0,.48-0.19,1.39,1.39,0,0,0,.36-0.42,2.14,2.14,0,0,0,.22-0.54,2.17,2.17,0,0,0,.07-0.5V8.45a1.15,1.15,0,0,0-.38-0.91,1.49,1.49,0,0,0-1-.36V7L73.1,7H74q1.24,0,2.53-.07A0.08,0.08,0,0,1,76.6,7a0.09,0.09,0,0,1-.06.11,1.94,1.94,0,0,0-.91.44,1.07,1.07,0,0,0-.41.85V17.3a1.9,1.9,0,0,0,.63,1.54,2.32,2.32,0,0,0,1.56.54,2.94,2.94,0,0,0,1.67-.51,3.38,3.38,0,0,0,1.17-1.35l0.19,0a0.78,0.78,0,0,1,0,.14"/><path class="cls-3" d="M93.57,7.73a1.35,1.35,0,0,0-.33.89V15a6,6,0,0,1-.36,2.08,5.22,5.22,0,0,1-1,1.71,4.58,4.58,0,0,1-1.56,1.15,4.91,4.91,0,0,1-2.06.42,5,5,0,0,1-1.63-.27,5.68,5.68,0,0,1-1.49-.78,6.39,6.39,0,0,1-1.23-1.17,4.69,4.69,0,0,1-.8-1.46A1.9,1.9,0,0,1,83,16.17c0-.23,0-0.49,0-0.79s0-.62,0-1,0-.7,0-1.05,0-.82,0-1.22,0-.76,0-1.1V8.64a1.16,1.16,0,0,0-.37-1,2.81,2.81,0,0,0-1-.45,0.09,0.09,0,0,1-.06-0.11A0.08,0.08,0,0,1,81.59,7q1.36,0.07,2.69.07H85l0.74,0a0.09,0.09,0,0,1,.09.07,0.1,0.1,0,0,1,0,.12,3.31,3.31,0,0,0-.77.56,1.09,1.09,0,0,0-.39.8l0,7.3a3.75,3.75,0,0,0,.27,1.47,3.16,3.16,0,0,0,.77,1.12,3.61,3.61,0,0,0,1.18.73,4,4,0,0,0,1.46.26,4.21,4.21,0,0,0,1.5-.26A3.49,3.49,0,0,0,91,18.5a3.29,3.29,0,0,0,.77-1.15,3.94,3.94,0,0,0,.27-1.5l0-7.2a1.3,1.3,0,0,0-.36-1,2,2,0,0,0-1-.44,0.09,0.09,0,0,1-.06-0.11A0.08,0.08,0,0,1,90.62,7a12.88,12.88,0,0,0,1.31.07h1.62c0.29,0,.57,0,0.86,0l0,0.19a1.43,1.43,0,0,0-.86.49"/><path class="cls-3" d="M104.7,19.15a6,6,0,0,1-1.51,1.59,7.08,7.08,0,0,1-2,1,6.82,6.82,0,0,1-2.11.36A5.1,5.1,0,0,1,98,22a3.13,3.13,0,0,1-1-.36,2.21,2.21,0,0,1-.7-0.64,1.7,1.7,0,0,1-.27-1,3.82,3.82,0,0,1,.08-0.81q0.08-.38.18-0.74c0-.13.06-0.26,0.08-0.39s0.05-.27.08-0.39a0.09,0.09,0,0,1,.11-0.06,0.08,0.08,0,0,1,.09.08V18A3.24,3.24,0,0,0,97,19.28a2.58,2.58,0,0,0,.7,1,3.2,3.2,0,0,0,1,.58A4,4,0,0,0,100,21a4.05,4.05,0,0,0,2.34-.77,3.08,3.08,0,0,0,.82-0.91,2.25,2.25,0,0,0,.32-1.18,2.87,2.87,0,0,0-.3-1.23,6.52,6.52,0,0,0-.78-1.25,14.61,14.61,0,0,0-1.11-1.24q-0.62-.62-1.26-1.22l-1.33-1.3a12.54,12.54,0,0,1-1.19-1.35,7.65,7.65,0,0,1-.86-1.41,3.37,3.37,0,0,1-.33-1.43A3,3,0,0,1,97,5.85a5,5,0,0,1,1.52-1.29,7.17,7.17,0,0,1,2-.73,9.44,9.44,0,0,1,2-.23,8.54,8.54,0,0,1,2.34.31s0.07,0,.07.1c0,0.51-.1,1-0.16,1.53s-0.12,1-.2,1.53a0.25,0.25,0,0,1,0,.08,0.25,0.25,0,0,0,0,.08,0.08,0.08,0,0,1-.08.08,0.08,0.08,0,0,1-.11-0.06,4.41,4.41,0,0,0-.37-1.07,3.34,3.34,0,0,0-.62-0.87,3,3,0,0,0-.86-0.6,2.57,2.57,0,0,0-1.08-.23,3.09,3.09,0,0,0-1.16.21,2.91,2.91,0,0,0-.93.58,2.65,2.65,0,0,0-.62.89,2.85,2.85,0,0,0-.23,1.15,2.71,2.71,0,0,0,.27,1.2,5.66,5.66,0,0,0,.71,1.1,8.88,8.88,0,0,0,1,1c0.39,0.34.79,0.68,1.2,1l1.34,1.16a10.16,10.16,0,0,1,1.19,1.23,6,6,0,0,1,.85,1.39,4,4,0,0,1,.32,1.62,3.71,3.71,0,0,1-.6,2.06"/></svg>